<svg height="436pt" viewBox="-42 0 436 436.688" width="436pt" xmlns="http://www.w3.org/2000/svg"><path d="m88.34375 432v4.6875l10.34375-10.34375c3.125-3.121094 8.191406-3.121094 11.3125 0l10.34375 10.34375v-36.6875h-32zm0 0"/><path d="m136.34375 400v24h176c22.082031-.027344 39.976562-17.917969 40-40v-.886719c-10.503906 10.800781-24.929688 16.890625-40 16.886719zm0 0"/><path d="m272.34375 0h32v344h-32zm0 0"/><path d="m6.953125 351.296875 1.097656-.65625c2.175781-1.289063 4.453125-2.402344 6.804688-3.328125l1.027343-.367188c2.4375-.902343 4.949219-1.601562 7.503907-2.089843.230469-.046875.46875-.0625.710937-.101563 2.722656-.488281 5.480469-.742187 8.246094-.753906h224v-344h-216c-22.078125.0273438-39.972656 17.917969-40 40v316.167969c.152344-.136719.335938-.222657.488281-.359375 1.921875-1.660156 3.96875-3.167969 6.121094-4.511719zm25.390625-295.296875c0-13.253906 10.746094-24 24-24h48c4.417969 0 8 3.582031 8 8s-3.582031 8-8 8h-48c-4.417969 0-8 3.582031-8 8v264c0 4.417969-3.582031 8-8 8s-8-3.582031-8-8zm0 0"/><path d="m320.34375.800781v342.398438c18.613281-3.828125 31.976562-20.199219 32-39.199219v-264c-.023438-19-13.386719-35.371094-32-39.199219zm0 0"/><path d="m350.160156 345.183594c-.679687.617187-1.335937 1.265625-2.039062 1.847656-.703125.585938-1.433594 1.105469-2.152344 1.648438-.71875.542968-1.414062 1.105468-2.167969 1.601562-.75.496094-1.597656.984375-2.398437 1.472656-.800782.484375-1.472656.941406-2.25 1.367188-.773438.421875-1.710938.847656-2.574219 1.261718-.863281.417969-1.542969.800782-2.34375 1.128907s-1.847656.695312-2.777344 1.03125c-.800781.296875-1.601562.625-2.398437.882812-1.015625.316407-2.074219.550781-3.121094.796875-.761719.191406-1.496094.425782-2.273438.585938-1.222656.253906-2.488281.40625-3.734374.582031-.625.082031-1.222657.21875-1.847657.28125-1.90625.207031-3.820312.316406-5.738281.328125h-280c-8.496094-.035156-16.65625 3.328125-22.664062 9.335938-6.007813 6.007812-9.367188 14.167968-9.335938 22.664062-.019531 2.09375.1875 4.183594.617188 6.230469 3.007812 14.957031 16.128906 25.730469 31.382812 25.769531h40v-24h-16c-4.417969 0-8-3.582031-8-8s3.582031-8 8-8h256c22.082031-.027344 39.976562-17.917969 40-40v-.800781c-.070312.074219-.160156.136719-.230469.214843-.625.585938-1.304687 1.171876-1.953125 1.769532zm0 0"/></svg>