<?xml version="1.0" encoding="UTF-8" standalone="no"?><!DOCTYPE svg PUBLIC "-//W3C//DTD SVG 1.1//EN" "http://www.w3.org/Graphics/SVG/1.1/DTD/svg11.dtd"><svg width="100%" height="100%" viewBox="0 0 2836 3479" version="1.1" xmlns="http://www.w3.org/2000/svg" xmlns:xlink="http://www.w3.org/1999/xlink" xml:space="preserve" style="fill-rule:evenodd;clip-rule:evenodd;stroke-linejoin:round;stroke-miterlimit:1.41421;"><g><g><path d="M1380.38,838.037l-159.91,-92.324l-565.069,326.242l159.91,92.325l565.069,-326.243Z"/><path d="M250.275,652.485l-160.708,92.785l1291.58,745.695l160.707,-92.785l-1291.58,-745.695Z"/><path d="M654.636,419.027l-160.707,92.785l1291.58,745.695l160.708,-92.785l-1291.58,-745.695Z"/><path d="M2106.16,419.009l-159.91,-92.324l-565.069,326.243l159.91,92.324l565.069,-326.243Z"/><path d="M976.052,233.458l-160.708,92.785l725.746,419.009l160.707,-92.784l-725.745,-419.01Z"/><path d="M1744.07,443.414l-160.708,92.785l725.746,419.009l160.708,-92.784l-725.746,-419.01Z"/><path d="M1380.41,0l-160.708,92.785l725.746,419.009l160.708,-92.785l-725.746,-419.009Z"/></g><g><path d="M574.162,1394.34l0,-205.977l-574.162,-331.493l0,205.978l574.162,331.492Z"/><path d="M574.162,2852.03l0,-205.978l-574.162,-331.492l0,205.977l574.162,331.493Z"/><path d="M163.294,951.148l-163.294,-94.278l0,1663.66l163.294,94.278l0,-1663.66Z"/><path d="M574.162,1188.36l-163.294,-94.278l0,612.651l163.294,94.277l0,-612.65Z"/><path d="M574.162,2239.38l-163.294,-94.277l0,612.65l163.294,94.278l0,-612.651Z"/><path d="M1311.62,3277.8l0,-205.977l-574.162,-331.493l0,205.977l574.162,331.493Z"/><path d="M900.749,1376.92l-163.293,-94.277l0,1663.66l163.293,94.278l0,-1663.66Z"/><path d="M1311.62,1614.13l-163.294,-94.277l0,1663.66l163.294,94.278l0,-1663.66Z"/></g><g><path d="M2055.13,1470.38l0,-205.119l-607.415,350.692l0,205.118l607.415,-350.691Z"/><path d="M2055.13,2921.99l0,-205.118l-607.415,350.691l0,205.119l607.415,-350.692Z"/><path d="M1620.47,1516.22l-172.751,99.738l0,1656.73l172.751,-99.738l0,-1656.73Z"/><path d="M2835.3,2471.56l0,-205.119l-607.415,350.692l0,205.118l607.415,-350.691Z"/><path d="M2835.3,1745.76l0,-205.118l-607.415,350.691l0,205.119l607.415,-350.692Z"/><path d="M2835.3,1019.95l0,-205.118l-607.415,350.691l0,205.119l607.415,-350.692Z"/><path d="M2400.64,1065.79l-172.751,99.738l0,1656.73l172.751,-99.738l0,-1656.73Z"/><path d="M2055.13,2081.26l-108.15,67.52l108.15,56.229m-172.751,-114.205l0,-725.804l172.751,-99.738l0,1656.73l-172.751,99.738l0,-725.804l-434.664,250.954l0,-205.118l434.664,-250.954Z"/></g><g><path d="M33.615,2598.7c-0.066,3.604 -0.638,6.309 -1.718,8.113c-1.079,1.805 -2.404,2.254 -3.974,1.348c-1.766,-1.02 -3.303,-3.425 -4.612,-7.215c-0.458,1.101 -1.014,1.766 -1.668,1.996c1.766,3.144 2.65,7.068 2.65,11.773c0,5.463 -0.916,8.652 -2.748,9.567c1.766,2.841 2.649,6.614 2.649,11.318c0,6.374 -1.21,9.772 -3.63,10.196c2.486,4.47 3.729,9.513 3.729,15.127c0,4.249 -1.014,6.32 -3.042,6.211c1.7,2.803 2.551,6.633 2.551,11.489c0,5.159 -0.883,8.216 -2.65,9.169c1.636,2.917 2.454,6.727 2.454,11.432c0,4.856 -0.818,7.95 -2.454,9.282c1.571,2.576 2.356,5.836 2.356,9.782c0,6.222 -1.145,9.734 -3.435,10.537c0.785,1.06 1.537,2.632 2.257,4.717c1.308,-1.824 2.878,-2.208 4.71,-1.15c3.598,2.077 5.397,6.758 5.397,14.042c0,3.642 -0.54,6.365 -1.619,8.17c-1.079,1.805 -2.404,2.254 -3.974,1.348c-1.766,-1.02 -3.304,-3.425 -4.612,-7.215c-1.112,2.393 -2.584,3.06 -4.416,2.003c-1.897,-1.096 -3.5,-3.538 -4.808,-7.329c-1.112,2.393 -2.519,3.099 -4.219,2.117c-1.701,-0.982 -3.141,-2.989 -4.318,-6.021c-1.178,-3.032 -1.766,-6.445 -1.766,-10.239c0,-3.339 0.588,-5.654 1.766,-6.947c1.177,-1.293 2.617,-1.449 4.318,-0.467c1.831,1.058 3.303,3.197 4.415,6.419c0.72,-1.254 1.538,-1.92 2.453,-1.998c-2.485,-3.56 -3.728,-7.767 -3.728,-12.624c0,-4.704 1.112,-7.4 3.336,-8.089c-2.093,-3.485 -3.14,-7.655 -3.14,-12.511c0,-5.615 1.243,-8.616 3.729,-9.001c-2.421,-4.281 -3.631,-8.926 -3.631,-13.933c0,-4.705 1.341,-6.965 4.023,-6.783c-2.617,-3.483 -3.925,-8.184 -3.925,-14.103c0,-4.552 1.047,-7.059 3.14,-7.519c-1.962,-3.41 -2.944,-7.467 -2.944,-12.171c0,-4.856 1.08,-7.723 3.239,-8.601c-2.028,-3.447 -3.042,-7.675 -3.042,-12.683c0,-4.856 1.079,-7.723 3.238,-8.601c-0.589,-0.947 -1.145,-2.179 -1.668,-3.695c-1.112,2.393 -2.552,3.08 -4.318,2.06c-1.701,-0.982 -3.173,-3.046 -4.416,-6.191c-1.243,-3.146 -1.864,-6.616 -1.864,-10.41c0,-3.49 0.67,-5.986 2.012,-7.488c1.341,-1.502 2.796,-1.8 4.366,-0.894c1.897,1.096 3.304,3.501 4.22,7.217c1.243,-1.711 2.813,-2.018 4.71,-0.923c1.831,1.058 3.303,3.197 4.415,6.419c1.309,-1.824 2.879,-2.208 4.71,-1.15c3.664,2.115 5.496,6.815 5.496,14.099Z" style="fill-rule:nonzero;"/><path d="M109.074,2642.27c0,5.767 -0.883,9.127 -2.649,10.08c1.701,2.803 2.551,6.556 2.551,11.261c0,5.311 -0.949,8.481 -2.846,9.511c1.701,2.803 2.552,6.632 2.552,11.488c0,5.463 -0.884,8.671 -2.65,9.624c1.766,2.386 2.65,5.551 2.65,9.497c0,5.615 -1.113,9.222 -3.337,10.821c2.028,2.688 3.042,6.84 3.042,12.455c0,5.008 -0.883,8.14 -2.649,9.396c1.766,2.386 2.649,5.627 2.649,9.725c0,6.07 -1.275,9.734 -3.827,10.993c1.636,2.917 2.453,6.727 2.453,11.432c0,4.401 -0.686,7.418 -2.06,9.053c2.028,2.233 3.042,5.399 3.042,9.496c0,5.311 -0.671,8.87 -2.012,10.675c-1.341,1.806 -2.797,2.255 -4.367,1.349c-1.57,-0.907 -2.829,-2.848 -3.777,-5.823c-0.949,-2.976 -1.423,-6.285 -1.423,-9.927c0,-3.946 0.948,-6.433 2.845,-7.462c-2.485,-3.56 -3.728,-8.147 -3.728,-13.762c0,-5.16 1.21,-8.027 3.63,-8.602c-0.261,-0.455 -0.49,-0.967 -0.687,-1.535c-0.196,-0.569 -0.392,-1.137 -0.588,-1.706c-1.112,2.393 -2.454,3.136 -4.024,2.23c-1.7,-0.982 -3.189,-3.169 -4.464,-6.561c-1.276,-3.393 -1.914,-7.061 -1.914,-11.007c0,-2.428 0.295,-4.762 0.883,-7.002c-3.14,-3.33 -4.71,-8.865 -4.71,-16.605c0,-3.035 0.327,-5.577 0.982,-7.628c-3.337,-3.747 -5.005,-8.807 -5.005,-15.181c0,-2.428 0.327,-4.212 0.981,-5.352c-1.439,-1.741 -2.78,-4.374 -4.023,-7.9c-1.243,-3.525 -1.864,-6.956 -1.864,-10.295c0,-1.973 0.229,-3.586 0.687,-4.839c-1.701,-0.982 -3.239,-3.615 -4.612,-7.898l-0.491,0.627c1.243,2.994 1.864,6.54 1.864,10.637c0,4.704 -0.785,7.742 -2.355,9.111c1.505,3.145 2.257,6.994 2.257,11.547c0,5.463 -0.981,8.766 -2.944,9.909c1.767,2.689 2.65,6.614 2.65,11.773c0,5.16 -0.916,8.349 -2.748,9.568c1.767,2.84 2.65,6.689 2.65,11.545c0,5.311 -0.883,8.443 -2.65,9.396c1.636,2.918 2.454,6.804 2.454,11.66c0,5.311 -0.916,8.425 -2.748,9.34c1.766,3.144 2.649,6.993 2.649,11.545c0,5.16 -0.458,8.727 -1.373,10.702c-0.916,1.976 -2.126,2.529 -3.631,1.66c-1.766,-1.02 -3.304,-3.463 -4.612,-7.329c-1.308,-3.866 -1.963,-7.772 -1.963,-11.718c0,-4.704 1.113,-7.401 3.337,-8.089c-2.094,-3.485 -3.14,-7.656 -3.14,-12.512c0,-4.856 1.079,-7.723 3.238,-8.601c-2.028,-3.447 -3.042,-7.523 -3.042,-12.227c0,-4.856 1.079,-7.723 3.238,-8.602c-2.093,-3.485 -3.14,-7.731 -3.14,-12.739c0,-4.856 1.014,-7.685 3.042,-8.487c-2.028,-3.143 -3.042,-6.991 -3.042,-11.544c0,-5.16 1.014,-8.52 3.042,-10.081c-1.897,-3.675 -2.846,-8.016 -2.846,-13.024c0,-5.463 1.112,-8.463 3.337,-9c-1.374,-3.221 -2.061,-6.804 -2.061,-10.75c0,-4.249 0.85,-6.945 2.551,-8.087c-2.355,-2.878 -3.532,-6.82 -3.532,-11.828c0,-3.794 0.687,-6.66 2.06,-8.598c1.374,-1.939 2.879,-2.436 4.514,-1.492c3.402,1.964 5.103,6.816 5.103,14.555c0,4.857 -0.851,7.856 -2.551,8.998l1.57,2.728c1.308,-0.914 2.584,-1.012 3.826,-0.295c1.505,0.869 2.748,2.763 3.729,5.682c0.982,2.918 1.472,6.199 1.472,9.841c0,2.883 -0.392,5.767 -1.177,8.653c0.131,-0.077 0.556,0.093 1.275,0.508c1.636,0.945 3.059,3.132 4.269,6.562c1.21,3.431 1.815,7.043 1.815,10.836c0,2.58 -0.327,4.895 -0.981,6.946c0.589,0.643 1.243,1.666 1.962,3.068c0.72,1.401 1.391,2.927 2.012,4.575c0.622,1.649 1.129,3.345 1.521,5.09c0.393,1.744 0.589,3.375 0.589,4.892c0,2.125 -0.229,3.586 -0.687,4.384c2.813,4.052 4.219,9.341 4.219,15.866c0,2.276 -0.359,4.497 -1.079,6.661c1.766,2.234 3.075,5.189 3.925,8.867c0.458,-0.798 1.112,-1.33 1.963,-1.598c-2.159,-3.523 -3.239,-7.788 -3.239,-12.796c0,-4.856 1.014,-7.685 3.042,-8.487c-1.962,-3.409 -2.944,-7.466 -2.944,-12.171c0,-5.007 1.145,-7.913 3.435,-8.715c-2.224,-3.561 -3.336,-7.845 -3.336,-12.853c0,-4.856 1.079,-7.723 3.238,-8.601c-2.028,-3.447 -3.042,-7.523 -3.042,-12.227c0,-5.463 1.243,-8.54 3.729,-9.229c-1.112,-1.856 -2.012,-4.045 -2.699,-6.566c-0.687,-2.521 -1.03,-5.147 -1.03,-7.879c0,-3.035 0.572,-5.056 1.717,-6.065c1.145,-1.008 2.47,-1.078 3.974,-0.209c4.056,2.342 6.084,7.23 6.084,14.666Z" style="fill-rule:nonzero;"/><path d="M175.408,2680.57c-0.131,8.423 -1.832,11.69 -5.103,9.801c-1.897,-1.095 -3.565,-3.879 -5.004,-8.352c-0.916,3.113 -2.453,4.047 -4.612,2.8c-1.963,-1.133 -3.533,-3.557 -4.71,-7.272c-1.112,2.393 -2.584,3.061 -4.416,2.003c-1.897,-1.095 -3.434,-3.424 -4.612,-6.987c-1.112,2.393 -2.584,3.06 -4.416,2.003c-2.028,-1.171 -3.663,-3.709 -4.906,-7.613c-0.458,1.101 -1.079,1.729 -1.864,1.883c1.962,2.954 2.943,6.935 2.943,11.943c0,4.856 -0.85,7.931 -2.551,9.225c1.57,3.487 2.355,7.43 2.355,11.831c0,4.704 -0.785,7.741 -2.355,9.111l1.472,4.264c1.243,-1.71 3.009,-1.904 5.299,-0.582c1.439,0.831 2.715,2.402 3.827,4.713c0.916,-1.141 1.995,-1.352 3.238,-0.634c2.028,1.17 3.729,3.746 5.103,7.726c1.177,-2.659 2.911,-3.327 5.2,-2.005c3.664,2.115 5.495,6.663 5.495,13.643c0,3.946 -0.523,6.868 -1.57,8.768c-1.046,1.9 -2.387,2.377 -4.023,1.433c-1.504,-0.869 -2.878,-2.8 -4.121,-5.794c-1.112,1.483 -2.421,1.789 -3.925,0.921c-2.879,-1.662 -4.939,-4.976 -6.182,-9.943c-1.374,3.456 -3.108,4.58 -5.201,3.371c-1.505,-0.869 -2.748,-3.028 -3.729,-6.478c-0.261,0.456 -0.507,0.884 -0.736,1.283c-0.229,0.398 -0.507,0.655 -0.834,0.77c1.766,2.689 2.65,6.613 2.65,11.773c0,5.159 -0.916,8.349 -2.748,9.567c1.766,2.841 2.649,6.69 2.649,11.546c0,5.311 -0.883,8.443 -2.649,9.396c1.636,2.917 2.453,6.804 2.453,11.66c0,5.311 -0.916,8.425 -2.747,9.34c1.766,3.144 2.649,6.993 2.649,11.545c0,5.16 -0.458,8.727 -1.374,10.702c-0.916,1.975 -2.126,2.529 -3.63,1.66c-1.767,-1.02 -3.304,-3.463 -4.612,-7.329c-1.309,-3.866 -1.963,-7.772 -1.963,-11.718c0,-4.704 1.112,-7.401 3.336,-8.089c-2.093,-3.485 -3.14,-7.656 -3.14,-12.512c0,-4.856 1.08,-7.723 3.239,-8.601c-2.028,-3.447 -3.042,-7.523 -3.042,-12.227c0,-4.857 1.079,-7.724 3.238,-8.602c-2.094,-3.485 -3.14,-7.731 -3.14,-12.739c0,-4.856 1.014,-7.685 3.042,-8.487c-2.028,-3.144 -3.042,-6.992 -3.042,-11.544c0,-5.16 1.014,-8.52 3.042,-10.081c-1.897,-3.675 -2.846,-8.016 -2.846,-13.024c0,-4.704 0.916,-7.666 2.748,-8.885c-1.636,-3.372 -2.454,-7.183 -2.454,-11.432c0,-4.401 0.982,-7.173 2.944,-8.316c-2.093,-3.333 -3.14,-6.821 -3.14,-10.463c0,-1.972 0.213,-3.747 0.638,-5.322c0.425,-1.576 0.965,-2.857 1.619,-3.846c0.654,-0.988 1.407,-1.654 2.257,-1.997c0.85,-0.344 1.701,-0.27 2.551,0.221c1.439,0.831 2.715,3.085 3.827,6.762c1.243,-2.166 2.879,-2.663 4.907,-1.492c1.897,1.095 3.303,3.425 4.219,6.988c1.243,-1.71 2.813,-2.018 4.71,-0.922c1.832,1.057 3.304,3.197 4.416,6.419c1.308,-1.825 2.878,-2.208 4.71,-1.151c1.635,0.945 3.009,2.648 4.121,5.111c1.047,-1.368 2.519,-1.505 4.416,-0.409c4.056,2.341 6.084,7.23 6.084,14.666Z" style="fill-rule:nonzero;"/><path d="M241.349,2761.89c0,4.704 -0.916,7.666 -2.748,8.884c1.767,2.386 2.65,5.551 2.65,9.497c0,5.615 -1.112,9.222 -3.336,10.821c2.027,2.688 3.041,6.84 3.041,12.455c0,5.008 -0.883,8.14 -2.649,9.396c1.766,2.386 2.649,5.551 2.649,9.497c0,3.035 -0.523,5.73 -1.57,8.085c-1.046,2.355 -2.256,3.515 -3.63,3.481c1.177,2.804 1.766,6.103 1.766,9.897c0,3.794 -0.54,6.934 -1.619,9.422c-1.079,2.488 -2.404,3.279 -3.974,2.372c-0.524,-0.302 -1.014,-0.813 -1.472,-1.533c0.654,2.351 0.981,4.816 0.981,7.396c0,3.49 -0.605,6.176 -1.815,8.057c-1.21,1.881 -2.601,2.368 -4.171,1.462c-1.7,-0.982 -3.172,-3.501 -4.415,-7.557c-1.112,2.393 -2.552,3.079 -4.318,2.059c-1.897,-1.095 -3.5,-3.538 -4.808,-7.328c-1.112,2.393 -2.486,3.117 -4.121,2.173c-1.57,-0.906 -3.042,-2.932 -4.416,-6.078c-1.374,-3.145 -2.061,-6.463 -2.061,-9.953c0,-2.125 0.327,-3.984 0.982,-5.58c-0.851,-0.491 -1.685,-1.427 -2.503,-2.81c-0.817,-1.383 -1.537,-2.974 -2.159,-4.775c-0.621,-1.8 -1.128,-3.724 -1.52,-5.772c-0.393,-2.047 -0.589,-3.982 -0.589,-5.803c0,-3.794 0.719,-6.261 2.159,-7.403c-3.271,-3.558 -4.907,-8.6 -4.907,-15.125c0,-4.704 1.08,-7.496 3.238,-8.374c-2.093,-3.485 -3.14,-7.731 -3.14,-12.739c0,-4.856 1.014,-7.685 3.042,-8.487c-2.028,-3.143 -3.042,-6.992 -3.042,-11.544c0,-5.16 1.014,-8.52 3.042,-10.081c-1.897,-3.675 -2.845,-7.94 -2.845,-12.796c0,-6.981 1.57,-10.172 4.71,-9.573c-1.047,-3.032 -1.57,-5.914 -1.57,-8.646c0,-1.973 0.212,-3.785 0.637,-5.436c0.426,-1.652 0.965,-2.971 1.62,-3.959c0.654,-0.988 1.406,-1.692 2.256,-2.112c0.851,-0.419 1.734,-0.441 2.65,-0.064c-0.523,-2.426 -0.785,-4.626 -0.785,-6.599c0,-3.642 0.67,-6.252 2.011,-7.83c1.342,-1.578 2.83,-1.894 4.465,-0.95c1.832,1.057 3.206,3.444 4.122,7.159c1.243,-1.71 2.813,-2.018 4.71,-0.922c1.831,1.057 3.303,3.197 4.415,6.419c1.243,-2.014 2.748,-2.511 4.514,-1.491c1.505,0.868 2.846,2.629 4.023,5.282c1.178,2.652 1.767,5.724 1.767,9.214c0,2.276 -0.36,4.497 -1.08,6.661l0.491,0.283c1.701,0.982 3.222,3.34 4.563,7.073c1.341,3.734 2.011,7.573 2.011,11.519c0,3.794 -0.686,6.508 -2.06,8.143c3.205,2.306 4.808,7.177 4.808,14.613Zm-8.341,5.883c-2.224,-3.561 -3.336,-7.997 -3.336,-13.308c0,-3.794 0.719,-6.262 2.159,-7.404c-3.402,-3.329 -5.103,-8.788 -5.103,-16.376c0,-2.579 0.294,-4.989 0.883,-7.229c-0.065,0.114 -0.392,0.001 -0.981,-0.339c-1.701,-0.982 -3.173,-3.425 -4.416,-7.33c-1.112,2.393 -2.584,3.061 -4.415,2.004c-1.898,-1.096 -3.435,-3.425 -4.612,-6.988c-0.982,2.468 -2.355,3.193 -4.122,2.173c-0.719,-0.415 -1.145,-0.737 -1.275,-0.964c0.196,1.934 0.294,3.812 0.294,5.633c0,8.953 -1.603,13.263 -4.808,12.93c0.981,2.691 1.472,5.782 1.472,9.272c0,4.856 -0.818,7.951 -2.453,9.283c1.504,3.145 2.256,6.993 2.256,11.546c0,5.463 -0.948,8.785 -2.845,9.966c1.766,2.689 2.649,6.613 2.649,11.773c0,5.16 -0.948,8.33 -2.845,9.511c1.831,2.878 2.747,6.746 2.747,11.602c0,3.945 -0.654,6.906 -1.962,8.882c3.27,2.344 4.906,7.386 4.906,15.125c0,3.187 -0.393,5.995 -1.178,8.425c0.327,0.038 0.638,0.103 0.933,0.197c0.294,0.094 0.605,0.236 0.932,0.425c1.635,0.944 3.009,3.103 4.121,6.476c1.308,-1.824 2.911,-2.189 4.808,-1.093c1.832,1.057 3.304,3.197 4.416,6.419c1.243,-2.014 2.682,-2.549 4.318,-1.605c0.327,0.189 0.686,0.435 1.079,0.737c0.392,0.303 0.752,0.624 1.079,0.965c-1.112,-4.133 -1.668,-7.792 -1.668,-10.979c0,-6.829 1.734,-9.622 5.201,-8.379c-1.374,-3.221 -2.061,-6.728 -2.061,-10.522c0,-5.008 1.178,-7.894 3.533,-8.659c-2.224,-3.561 -3.336,-7.845 -3.336,-12.853c0,-4.704 1.046,-7.514 3.14,-8.43c-1.963,-3.409 -2.944,-7.466 -2.944,-12.171c0,-5.007 1.145,-7.913 3.434,-8.715Z" style="fill-rule:nonzero;"/><path d="M307.977,2799.67c0,7.284 -1.537,10.645 -4.612,10.084c0.851,2.009 1.276,4.379 1.276,7.11c0,1.821 -0.18,3.652 -0.54,5.493c-0.36,1.841 -0.85,3.379 -1.472,4.613c-0.621,1.235 -1.341,2.147 -2.159,2.737c-0.817,0.591 -1.651,0.64 -2.502,0.149c-0.654,-0.377 -1.21,-0.926 -1.668,-1.646c0.72,2.54 1.079,5.1 1.079,7.68c0,4.704 -0.719,7.779 -2.158,9.224c2.747,2.042 4.121,5.415 4.121,10.119c0,3.946 -0.851,7.856 -2.551,11.73c0.13,0.075 0.294,0.132 0.49,0.169c0.196,0.038 0.36,0.094 0.491,0.17c1.504,0.868 2.78,2.705 3.827,5.51c1.046,2.805 1.57,5.952 1.57,9.442c0,2.884 -0.36,5.407 -1.08,7.572c3.402,2.116 5.103,6.208 5.103,12.279c0,5.159 -0.67,8.68 -2.012,10.561c-1.341,1.881 -2.796,2.369 -4.366,1.463c-3.533,-2.04 -5.299,-7.309 -5.299,-15.807c0,-3.035 0.425,-5.293 1.276,-6.775c-1.44,-1.438 -2.683,-3.749 -3.729,-6.933c-1.047,-3.184 -1.57,-6.37 -1.57,-9.557c0,-2.124 0.36,-4.041 1.079,-5.75c-1.439,-0.983 -2.6,-3.133 -3.483,-6.45c-0.883,-3.317 -1.325,-6.721 -1.325,-10.211c0,-4.705 0.883,-7.458 2.649,-8.259c-0.523,-0.606 -1.014,-1.306 -1.472,-2.102c-0.457,-0.795 -0.85,-1.591 -1.177,-2.387c-0.916,1.596 -2.028,2.016 -3.336,1.261c-2.028,-1.171 -3.729,-3.974 -5.103,-8.409c-1.112,3 -2.682,3.914 -4.71,2.744c-2.028,-1.171 -3.631,-3.69 -4.808,-7.557c-0.524,1.367 -1.08,2.185 -1.668,2.452c1.766,2.84 2.649,6.689 2.649,11.545c0,5.311 -0.883,8.443 -2.649,9.396c1.635,2.917 2.453,6.804 2.453,11.66c0,5.311 -0.916,8.425 -2.748,9.34c1.766,3.144 2.65,6.993 2.65,11.545c0,5.16 -0.442,8.737 -1.325,10.731c-0.883,1.994 -2.11,2.538 -3.68,1.631c-1.766,-1.02 -3.287,-3.453 -4.563,-7.301c-1.275,-3.847 -1.913,-7.744 -1.913,-11.689c0,-4.553 1.079,-7.268 3.238,-8.146c-2.093,-3.485 -3.14,-7.656 -3.14,-12.512c0,-4.856 1.079,-7.723 3.238,-8.601c-2.028,-3.447 -3.042,-7.523 -3.042,-12.227c0,-4.856 1.08,-7.723 3.238,-8.602c-2.093,-3.485 -3.14,-7.731 -3.14,-12.739c0,-4.856 1.014,-7.685 3.042,-8.487c-2.028,-3.143 -3.042,-6.992 -3.042,-11.544c0,-5.16 1.014,-8.52 3.042,-10.081c-1.897,-3.675 -2.845,-8.016 -2.845,-13.024c0,-4.704 0.915,-7.666 2.747,-8.885c-1.635,-3.372 -2.453,-7.183 -2.453,-11.432c0,-4.4 0.981,-7.172 2.944,-8.316c-2.028,-3.143 -3.042,-6.612 -3.042,-10.406c0,-1.973 0.212,-3.747 0.638,-5.322c0.425,-1.576 0.965,-2.858 1.619,-3.846c0.654,-0.988 1.406,-1.654 2.257,-1.997c0.85,-0.344 1.668,-0.289 2.453,0.164c1.439,0.831 2.715,3.085 3.827,6.762c1.243,-2.166 2.911,-2.644 5.004,-1.435c1.832,1.057 3.206,3.368 4.122,6.932c1.242,-1.711 2.813,-2.018 4.71,-0.923c1.831,1.057 3.303,3.197 4.415,6.419c1.243,-2.014 2.748,-2.511 4.514,-1.491c1.505,0.868 2.846,2.629 4.023,5.282c1.178,2.652 1.767,5.724 1.767,9.214c0,2.428 -0.327,4.667 -0.982,6.718l0.491,0.283c1.701,0.982 3.205,3.292 4.514,6.931c1.308,3.639 1.962,7.507 1.962,11.604c0,3.794 -0.687,6.508 -2.06,8.143c3.271,2.344 4.906,7.006 4.906,13.987Zm-9.322,4.861c-1.635,-3.373 -2.453,-7.107 -2.453,-11.205c0,-4.097 0.719,-6.717 2.159,-7.858c-3.402,-3.33 -5.103,-8.789 -5.103,-16.377c0,-2.579 0.294,-4.989 0.883,-7.229c-0.065,0.114 -0.392,0.001 -0.981,-0.339c-1.701,-0.982 -3.173,-3.425 -4.416,-7.33c-1.112,2.393 -2.584,3.061 -4.416,2.004c-1.831,-1.058 -3.369,-3.387 -4.611,-6.988c-1.113,2.393 -2.584,3.061 -4.416,2.003c-2.028,-1.171 -3.664,-3.708 -4.907,-7.613c-0.457,1.102 -1.079,1.729 -1.864,1.883c1.963,2.954 2.944,6.935 2.944,11.943c0,4.856 -0.851,7.931 -2.551,9.225c1.57,3.487 2.355,7.43 2.355,11.831c0,4.704 -0.785,7.742 -2.355,9.111c1.504,3.145 2.257,6.994 2.257,11.547c0,5.463 -0.982,8.766 -2.944,9.909c0.654,0.985 1.21,2.292 1.668,3.922c1.243,-2.014 2.813,-2.473 4.71,-1.378c1.897,1.096 3.336,3.141 4.318,6.135c1.242,-1.558 2.812,-1.79 4.71,-0.695c1.57,0.907 2.911,2.591 4.023,5.055c1.308,-1.37 2.715,-1.62 4.219,-0.751c0.982,0.566 1.93,1.569 2.846,3.009c-1.112,-3.222 -1.668,-7.337 -1.668,-12.345c0,-3.187 0.441,-5.436 1.324,-6.747c0.884,-1.311 2.306,-1.552 4.269,-0.722Z" style="fill-rule:nonzero;"/><path d="M349.779,2841.79c0,2.579 -0.229,4.723 -0.687,6.432c-0.458,1.708 -1.03,3.009 -1.717,3.902c-0.687,0.894 -1.439,1.446 -2.257,1.657c-0.818,0.21 -1.586,0.108 -2.306,-0.307c-2.551,-1.473 -4.121,-5.491 -4.71,-12.053c-0.523,3.796 -1.635,5.885 -3.336,6.269c1.57,3.031 2.355,6.823 2.355,11.375c0,5.16 -0.916,8.349 -2.748,9.568c1.766,2.841 2.65,6.689 2.65,11.545c0,5.311 -0.884,8.444 -2.65,9.397c1.636,2.917 2.453,6.803 2.453,11.659c0,5.312 -0.916,8.425 -2.747,9.34c1.766,3.144 2.649,6.993 2.649,11.545c0,5.16 -0.458,8.727 -1.374,10.703c-0.915,1.975 -2.126,2.528 -3.63,1.659c-1.701,-0.982 -3.222,-3.415 -4.563,-7.301c-1.341,-3.885 -2.012,-7.8 -2.012,-11.746c0,-4.704 1.112,-7.4 3.337,-8.089c-2.094,-3.485 -3.141,-7.655 -3.141,-12.512c0,-4.856 1.08,-7.723 3.239,-8.601c-2.028,-3.447 -3.042,-7.523 -3.042,-12.227c0,-4.856 1.079,-7.723 3.238,-8.602c-2.093,-3.484 -3.14,-7.731 -3.14,-12.739c0,-4.704 1.014,-7.609 3.042,-8.714c-2.028,-3.144 -3.042,-6.992 -3.042,-11.545c0,-4.704 1.047,-7.969 3.14,-9.796c-1.963,-3.409 -2.944,-7.769 -2.944,-13.081c0,-4.249 0.785,-7.21 2.355,-8.883c-0.719,-3.451 -1.079,-6.77 -1.079,-9.956c0,-4.856 0.85,-7.856 2.551,-8.998c-2.355,-2.878 -3.532,-6.744 -3.532,-11.6c0,-3.946 0.686,-6.888 2.06,-8.826c1.374,-1.939 2.879,-2.436 4.514,-1.492c3.402,1.964 5.103,6.816 5.103,14.556c0,4.856 -0.851,7.855 -2.552,8.998l0.982,1.704c0.85,-0.571 1.897,-0.498 3.14,0.22c1.504,0.868 2.813,2.762 3.925,5.68c1.112,2.919 1.668,6.123 1.668,9.613c0,3.946 -0.72,6.717 -2.159,8.314c2.617,2.573 3.925,7.123 3.925,13.648c0,4.097 -0.719,6.944 -2.159,8.542c3.467,2.001 5.201,5.582 5.201,10.742Zm24.63,-46.33c0,6.222 -1.047,9.639 -3.14,10.252c1.308,2.88 1.962,6.596 1.962,11.148c0,3.946 -0.49,7.305 -1.472,10.077c1.505,2.993 2.257,6.538 2.257,10.636c0,5.463 -0.883,8.823 -2.649,10.079c1.701,2.348 2.551,5.57 2.551,9.668c0,5.159 -1.145,8.596 -3.434,10.309c2.159,2.916 3.238,7.181 3.238,12.796c0,4.856 -0.883,7.912 -2.649,9.169c1.766,2.385 2.649,5.626 2.649,9.724c0,5.311 -1.145,8.823 -3.434,10.537c2.028,2.688 3.041,6.915 3.041,12.682c0,4.553 -0.752,7.533 -2.256,8.94c1.504,2.235 2.256,5.173 2.256,8.815c0,5.311 -0.67,8.87 -2.011,10.675c-1.341,1.806 -2.797,2.255 -4.367,1.349c-1.57,-0.906 -2.829,-2.848 -3.778,-5.823c-0.948,-2.976 -1.422,-6.285 -1.422,-9.927c0,-4.401 1.144,-7.002 3.434,-7.805c-2.224,-3.257 -3.336,-7.541 -3.336,-12.852c0,-4.857 1.014,-7.686 3.042,-8.488c-1.963,-3.409 -2.944,-7.466 -2.944,-12.17c0,-5.008 1.177,-7.894 3.532,-8.659c-2.158,-3.523 -3.238,-7.788 -3.238,-12.796c0,-4.401 0.883,-7.229 2.65,-8.486c-1.178,-1.59 -2.127,-3.883 -2.846,-6.878c-0.851,3.758 -2.453,4.957 -4.808,3.597c-1.636,-0.944 -3.059,-2.941 -4.269,-5.992c-1.21,-3.051 -1.815,-6.55 -1.815,-10.495c0,-5.463 1.439,-8.198 4.317,-8.206c-1.504,-3.145 -2.257,-6.538 -2.257,-10.18c0,-6.981 1.93,-9.964 5.79,-8.95c-0.981,-1.78 -1.815,-3.969 -2.502,-6.566c-0.687,-2.597 -1.031,-5.261 -1.031,-7.993c0,-2.58 0.655,-4.251 1.963,-5.013c1.308,-0.762 2.715,-0.709 4.219,0.16c1.047,0.604 1.93,1.569 2.65,2.895c0.327,-0.114 0.621,-0.248 0.883,-0.4c0.262,-0.153 0.556,-0.21 0.883,-0.173c-0.981,-1.781 -1.799,-3.922 -2.453,-6.424c-0.654,-2.503 -0.981,-5.044 -0.981,-7.624c0,-3.035 0.572,-5.056 1.717,-6.065c1.145,-1.008 2.469,-1.078 3.974,-0.209c4.056,2.342 6.084,7.23 6.084,14.666Zm-18.939,73.972c-0.13,8.422 -1.766,11.727 -4.906,9.914c-0.785,-0.453 -1.586,-1.295 -2.404,-2.526c-0.818,-1.231 -1.537,-2.67 -2.159,-4.319c-0.621,-1.649 -1.145,-3.469 -1.57,-5.459c-0.425,-1.991 -0.638,-3.973 -0.638,-5.945c0,-2.58 0.622,-4.422 1.865,-5.525c1.243,-1.104 2.616,-1.221 4.121,-0.352c3.794,2.19 5.691,6.928 5.691,14.212Zm10.009,-25.407c-0.916,-1.742 -1.668,-3.77 -2.257,-6.083c-0.85,1.937 -1.831,3.04 -2.943,3.308c0.785,1.516 1.439,3.259 1.962,5.231c0.72,-1.254 1.799,-2.073 3.238,-2.456Zm-25.022,-12.853c-1.766,-1.475 -3.14,-3.862 -4.121,-7.16l-0.883,1.767c1.504,2.538 2.42,5.646 2.747,9.325c0.523,-1.974 1.276,-3.284 2.257,-3.932Z" style="fill-rule:nonzero;"/><path d="M431.715,2828.55c-0.066,3.604 -0.638,6.309 -1.717,8.114c-1.08,1.805 -2.404,2.254 -3.974,1.347c-1.767,-1.019 -3.304,-3.425 -4.612,-7.215c-1.113,2.393 -2.584,3.061 -4.416,2.003c-1.832,-1.057 -3.369,-3.387 -4.612,-6.987c-1.112,2.392 -2.551,3.079 -4.318,2.059c-1.701,-0.982 -3.172,-3.045 -4.415,-6.191c-1.243,-3.146 -1.865,-6.616 -1.865,-10.409c0,-3.491 0.671,-5.987 2.012,-7.489c1.341,-1.502 2.829,-1.781 4.465,-0.837c1.831,1.058 3.205,3.445 4.121,7.16c1.243,-1.71 2.813,-2.018 4.71,-0.923c1.832,1.058 3.304,3.198 4.416,6.42c1.308,-1.825 2.911,-2.189 4.808,-1.094c3.598,2.077 5.397,6.758 5.397,14.042Zm8.929,48.405c0,4.704 -0.948,7.647 -2.845,8.828c1.831,2.423 2.747,5.608 2.747,9.553c0,5.463 -1.144,9.051 -3.434,10.765c2.028,2.688 3.042,6.84 3.042,12.454c0,5.008 -0.851,8.159 -2.551,9.454c1.7,2.347 2.551,5.57 2.551,9.667c0,5.463 -1.112,8.994 -3.336,10.594c2.027,2.688 3.041,6.915 3.041,12.682c0,4.553 -0.752,7.533 -2.256,8.94c1.504,2.235 2.256,5.173 2.256,8.815c0,5.16 -0.686,8.671 -2.06,10.533c-1.374,1.863 -2.846,2.341 -4.416,1.434c-1.57,-0.906 -2.829,-2.847 -3.778,-5.823c-0.948,-2.976 -1.423,-6.284 -1.423,-9.926c0,-4.401 1.145,-7.003 3.435,-7.806c-2.224,-3.257 -3.337,-7.541 -3.337,-12.852c0,-4.856 1.014,-7.685 3.042,-8.487c-1.962,-3.409 -2.943,-7.466 -2.943,-12.171c0,-5.007 1.177,-7.894 3.532,-8.659c-0.916,-1.135 -1.603,-2.67 -2.061,-4.604c-0.981,2.62 -2.387,3.402 -4.219,2.344c-1.897,-1.095 -3.5,-3.538 -4.808,-7.328c-0.916,2.506 -2.159,3.306 -3.729,2.399c-2.028,-1.17 -3.729,-3.973 -5.103,-8.409c-1.112,3 -2.682,3.915 -4.71,2.744c-2.028,-1.171 -3.63,-3.69 -4.808,-7.556c-0.523,1.367 -1.079,2.184 -1.668,2.451c1.766,2.841 2.649,6.689 2.649,11.545c0,5.312 -0.883,8.444 -2.649,9.397c1.635,2.917 2.453,6.804 2.453,11.66c0,5.311 -0.916,8.424 -2.747,9.34c1.766,3.144 2.649,6.992 2.649,11.545c0,5.159 -0.442,8.736 -1.325,10.73c-0.883,1.994 -2.109,2.538 -3.679,1.632c-1.701,-0.982 -3.206,-3.406 -4.514,-7.273c-1.309,-3.866 -1.963,-7.772 -1.963,-11.718c0,-4.552 1.08,-7.268 3.238,-8.146c-2.093,-3.485 -3.14,-7.655 -3.14,-12.511c0,-4.856 1.08,-7.723 3.238,-8.602c-2.027,-3.447 -3.041,-7.522 -3.041,-12.227c0,-4.856 1.079,-7.723 3.238,-8.601c-2.094,-3.485 -3.14,-7.731 -3.14,-12.739c0,-4.856 1.014,-7.685 3.042,-8.487c-2.028,-3.144 -3.042,-6.992 -3.042,-11.545c0,-5.159 1.014,-8.519 3.042,-10.08c-1.897,-3.675 -2.846,-7.941 -2.846,-12.797c0,-6.98 1.635,-10.133 4.906,-9.459c-1.046,-3.032 -1.57,-6.066 -1.57,-9.101c0,-3.794 0.589,-6.337 1.767,-7.63c1.177,-1.293 2.616,-1.449 4.317,-0.467c3.664,2.115 5.495,6.815 5.495,14.099c0,7.588 -1.57,10.93 -4.71,10.028c0.981,2.691 1.472,5.782 1.472,9.272c0,4.856 -0.785,7.969 -2.355,9.339c1.505,3.145 2.257,6.994 2.257,11.546c0,5.463 -0.981,8.766 -2.944,9.91c0.654,0.984 1.21,2.292 1.668,3.922c1.243,-2.014 2.813,-2.473 4.71,-1.378c1.897,1.095 3.337,3.14 4.318,6.135c1.243,-1.559 2.813,-1.791 4.71,-0.695c1.963,1.133 3.434,3.273 4.416,6.419c1.243,-2.014 2.878,-2.436 4.906,-1.265c1.963,1.133 3.434,3.349 4.416,6.647c0.392,-0.836 0.948,-1.425 1.668,-1.768c-1.963,-3.41 -2.944,-7.467 -2.944,-12.171c0,-5.008 1.178,-7.894 3.533,-8.659c-2.29,-3.598 -3.435,-8.053 -3.435,-13.364c0,-3.794 0.72,-6.262 2.159,-7.404c-3.336,-3.292 -5.004,-8.276 -5.004,-14.954c0,-3.793 0.605,-6.327 1.815,-7.601c1.21,-1.274 2.633,-1.439 4.268,-0.495c3.729,2.153 5.594,6.871 5.594,14.155c0,4.249 -0.655,7.286 -1.963,9.111c3.271,2.343 4.906,7.233 4.906,14.669Z" style="fill-rule:nonzero;"/><path d="M506.586,2871.77c-0.131,8.422 -1.832,11.689 -5.103,9.801c-1.832,-1.058 -3.467,-3.823 -4.906,-8.296c-0.982,3.076 -2.519,4.009 -4.612,2.8c-1.897,-1.095 -3.5,-3.538 -4.808,-7.328c-0.262,1.063 -0.818,1.728 -1.669,1.996c1.832,3.03 2.748,6.973 2.748,11.83c0,5.311 -0.949,8.481 -2.846,9.51c1.832,2.879 2.748,6.67 2.748,11.375c0,6.373 -1.21,9.772 -3.631,10.196c2.486,4.47 3.729,9.512 3.729,15.127c0,4.249 -1.014,6.32 -3.042,6.211c1.635,2.765 2.453,6.576 2.453,11.432c0,5.008 -0.85,8.083 -2.551,9.226c1.635,2.917 2.453,6.727 2.453,11.432c0,4.856 -0.818,7.95 -2.453,9.282c1.57,2.576 2.355,5.836 2.355,9.782c0,6.373 -1.178,9.867 -3.533,10.48c2.159,2.915 3.239,7.029 3.239,12.34c0,8.498 -1.832,11.69 -5.496,9.575c-1.7,-0.982 -3.123,-2.98 -4.268,-5.993c-1.145,-3.013 -1.717,-6.416 -1.717,-10.21c0,-2.58 0.343,-4.544 1.03,-5.893c0.687,-1.348 1.619,-2.138 2.797,-2.369c-2.486,-3.559 -3.729,-7.767 -3.729,-12.623c0,-4.553 1.145,-7.231 3.434,-8.033c-2.093,-3.485 -3.14,-7.656 -3.14,-12.512c0,-5.614 1.243,-8.615 3.729,-9.001c-2.42,-4.28 -3.631,-8.925 -3.631,-13.933c0,-4.704 1.309,-6.984 3.925,-6.839c-2.616,-3.483 -3.925,-8.184 -3.925,-14.102c0,-4.553 1.047,-7.06 3.14,-7.52c-1.962,-3.41 -2.943,-7.466 -2.943,-12.171c0,-4.856 1.079,-7.723 3.238,-8.601c-2.028,-3.447 -3.042,-7.675 -3.042,-12.683c0,-5.007 1.112,-7.856 3.336,-8.544c-0.719,-1.023 -1.308,-2.273 -1.766,-3.752c-1.112,2.393 -2.551,3.08 -4.318,2.06c-2.093,-1.208 -3.761,-3.765 -5.004,-7.669c-1.112,2.393 -2.715,2.985 -4.808,1.776c-1.57,-0.906 -2.911,-2.667 -4.024,-5.282c-1.112,-2.615 -1.668,-5.364 -1.668,-8.247c0,-3.946 0.704,-6.916 2.11,-8.911c1.406,-1.996 2.96,-2.503 4.661,-1.521c1.635,0.945 2.944,3.142 3.925,6.592c1.243,-2.166 2.911,-2.645 5.005,-1.436c1.831,1.057 3.205,3.368 4.121,6.932c1.243,-1.71 2.846,-1.999 4.808,-0.866c1.832,1.057 3.304,3.197 4.416,6.419c1.308,-1.824 2.878,-2.208 4.71,-1.15c1.57,0.906 2.911,2.591 4.023,5.054c1.047,-1.368 2.519,-1.505 4.416,-0.41c4.056,2.342 6.084,7.231 6.084,14.667Z" style="fill-rule:nonzero;"/><path d="M564.284,2905.08c-0.065,3.604 -0.638,6.309 -1.717,8.114c-1.079,1.804 -2.404,2.254 -3.974,1.347c-1.766,-1.02 -3.304,-3.425 -4.612,-7.215c-0.458,1.101 -1.014,1.767 -1.668,1.996c1.766,3.144 2.649,7.069 2.649,11.773c0,5.463 -0.916,8.652 -2.747,9.567c1.766,2.841 2.649,6.614 2.649,11.318c0,6.374 -1.21,9.772 -3.631,10.196c2.486,4.47 3.729,9.513 3.729,15.128c0,4.249 -1.014,6.319 -3.042,6.21c1.701,2.803 2.551,6.633 2.551,11.489c0,5.16 -0.883,8.216 -2.649,9.169c1.636,2.917 2.453,6.728 2.453,11.432c0,4.856 -0.817,7.95 -2.453,9.282c1.57,2.576 2.355,5.837 2.355,9.782c0,6.222 -1.145,9.734 -3.434,10.537c0.785,1.06 1.537,2.633 2.257,4.717c1.308,-1.824 2.878,-2.208 4.71,-1.15c3.598,2.077 5.397,6.758 5.397,14.042c0,3.642 -0.54,6.366 -1.619,8.171c-1.08,1.804 -2.405,2.254 -3.975,1.347c-1.766,-1.02 -3.303,-3.425 -4.612,-7.215c-1.112,2.393 -2.584,3.061 -4.415,2.003c-1.897,-1.095 -3.5,-3.538 -4.808,-7.329c-1.113,2.393 -2.519,3.099 -4.22,2.117c-1.701,-0.982 -3.14,-2.989 -4.317,-6.021c-1.178,-3.032 -1.767,-6.445 -1.767,-10.239c0,-3.338 0.589,-5.654 1.767,-6.947c1.177,-1.293 2.616,-1.449 4.317,-0.467c1.832,1.058 3.304,3.198 4.416,6.42c0.719,-1.254 1.537,-1.92 2.453,-1.999c-2.486,-3.559 -3.729,-7.767 -3.729,-12.623c0,-4.705 1.112,-7.401 3.336,-8.09c-2.093,-3.485 -3.14,-7.655 -3.14,-12.511c0,-5.615 1.243,-8.615 3.729,-9.001c-2.42,-4.281 -3.63,-8.925 -3.63,-13.933c0,-4.704 1.341,-6.965 4.023,-6.782c-2.617,-3.484 -3.925,-8.185 -3.925,-14.103c0,-4.553 1.046,-7.06 3.14,-7.52c-1.963,-3.41 -2.944,-7.466 -2.944,-12.171c0,-4.856 1.079,-7.723 3.238,-8.601c-2.028,-3.447 -3.042,-7.675 -3.042,-12.683c0,-4.856 1.08,-7.723 3.238,-8.601c-0.588,-0.947 -1.144,-2.178 -1.668,-3.695c-1.112,2.393 -2.551,3.08 -4.317,2.06c-1.701,-0.982 -3.173,-3.046 -4.416,-6.191c-1.243,-3.146 -1.864,-6.616 -1.864,-10.409c0,-3.491 0.67,-5.987 2.011,-7.489c1.341,-1.502 2.797,-1.8 4.367,-0.893c1.897,1.095 3.303,3.5 4.219,7.216c1.243,-1.71 2.813,-2.018 4.71,-0.923c1.832,1.058 3.304,3.198 4.416,6.419c1.308,-1.824 2.878,-2.207 4.71,-1.15c3.663,2.115 5.495,6.815 5.495,14.099Z" style="fill-rule:nonzero;"/><path d="M639.351,2991.67c0,4.705 -0.916,7.666 -2.747,8.885c1.766,2.385 2.649,5.551 2.649,9.497c0,5.614 -1.112,9.221 -3.336,10.821c2.028,2.688 3.042,6.84 3.042,12.454c0,5.008 -0.883,8.14 -2.65,9.397c1.767,2.386 2.65,5.551 2.65,9.497c0,3.035 -0.524,5.73 -1.57,8.085c-1.047,2.354 -2.257,3.515 -3.631,3.48c1.177,2.805 1.766,6.104 1.766,9.898c0,3.793 -0.539,6.934 -1.619,9.422c-1.079,2.488 -2.404,3.278 -3.974,2.372c-0.523,-0.302 -1.014,-0.813 -1.472,-1.533c0.654,2.351 0.981,4.816 0.981,7.396c0,3.49 -0.605,6.176 -1.815,8.057c-1.21,1.881 -2.6,2.368 -4.17,1.462c-1.701,-0.982 -3.173,-3.502 -4.416,-7.558c-1.112,2.393 -2.551,3.08 -4.318,2.06c-1.897,-1.095 -3.5,-3.538 -4.808,-7.328c-1.112,2.392 -2.486,3.117 -4.121,2.173c-1.57,-0.907 -3.042,-2.933 -4.416,-6.078c-1.374,-3.145 -2.061,-6.463 -2.061,-9.953c0,-2.125 0.328,-3.985 0.982,-5.58c-0.851,-0.491 -1.685,-1.428 -2.503,-2.81c-0.817,-1.383 -1.537,-2.975 -2.158,-4.775c-0.622,-1.8 -1.129,-3.724 -1.521,-5.772c-0.393,-2.048 -0.589,-3.982 -0.589,-5.803c0,-3.794 0.72,-6.262 2.159,-7.404c-3.271,-3.557 -4.907,-8.599 -4.907,-15.124c0,-4.705 1.08,-7.496 3.239,-8.374c-2.094,-3.485 -3.14,-7.731 -3.14,-12.739c0,-4.856 1.014,-7.685 3.041,-8.487c-2.027,-3.144 -3.041,-6.992 -3.041,-11.545c0,-5.159 1.014,-8.519 3.041,-10.08c-1.897,-3.675 -2.845,-7.941 -2.845,-12.797c0,-6.98 1.57,-10.171 4.71,-9.572c-1.047,-3.033 -1.57,-5.915 -1.57,-8.646c0,-1.973 0.212,-3.785 0.638,-5.436c0.425,-1.652 0.965,-2.972 1.619,-3.96c0.654,-0.988 1.406,-1.692 2.257,-2.111c0.85,-0.42 1.733,-0.441 2.649,-0.064c-0.523,-2.427 -0.785,-4.626 -0.785,-6.599c0,-3.642 0.671,-6.252 2.012,-7.83c1.341,-1.578 2.829,-1.895 4.464,-0.951c1.832,1.058 3.206,3.445 4.122,7.16c1.243,-1.71 2.813,-2.018 4.71,-0.923c1.832,1.058 3.303,3.198 4.416,6.42c1.243,-2.014 2.747,-2.511 4.513,-1.492c1.505,0.869 2.846,2.63 4.024,5.282c1.177,2.653 1.766,5.724 1.766,9.215c0,2.276 -0.36,4.496 -1.08,6.661l0.491,0.283c1.701,0.982 3.222,3.34 4.563,7.073c1.341,3.733 2.012,7.573 2.012,11.519c0,3.793 -0.687,6.508 -2.061,8.143c3.205,2.306 4.808,7.176 4.808,14.612Zm-8.341,5.883c-2.224,-3.56 -3.336,-7.996 -3.336,-13.307c0,-3.794 0.72,-6.262 2.159,-7.404c-3.402,-3.33 -5.103,-8.788 -5.103,-16.376c0,-2.58 0.295,-4.99 0.883,-7.229c-0.065,0.114 -0.392,0.001 -0.981,-0.339c-1.701,-0.982 -3.173,-3.426 -4.416,-7.33c-1.112,2.393 -2.584,3.061 -4.415,2.003c-1.897,-1.095 -3.435,-3.424 -4.612,-6.987c-0.981,2.468 -2.355,3.192 -4.122,2.173c-0.719,-0.416 -1.144,-0.737 -1.275,-0.964c0.196,1.934 0.294,3.812 0.294,5.633c0,8.953 -1.603,13.263 -4.808,12.93c0.981,2.691 1.472,5.782 1.472,9.272c0,4.856 -0.818,7.95 -2.453,9.282c1.504,3.145 2.257,6.994 2.257,11.547c0,5.463 -0.949,8.785 -2.846,9.966c1.766,2.689 2.649,6.613 2.649,11.773c0,5.159 -0.948,8.33 -2.845,9.511c1.831,2.878 2.747,6.745 2.747,11.602c0,3.945 -0.654,6.906 -1.962,8.882c3.271,2.344 4.906,7.385 4.906,15.125c0,3.187 -0.392,5.995 -1.177,8.425c0.327,0.037 0.637,0.103 0.932,0.197c0.294,0.094 0.605,0.235 0.932,0.424c1.635,0.944 3.009,3.103 4.121,6.477c1.309,-1.824 2.911,-2.189 4.808,-1.094c1.832,1.058 3.304,3.198 4.416,6.419c1.243,-2.013 2.682,-2.548 4.318,-1.604c0.327,0.189 0.687,0.434 1.079,0.737c0.393,0.302 0.752,0.624 1.08,0.965c-1.113,-4.133 -1.669,-7.792 -1.669,-10.979c0,-6.829 1.734,-9.622 5.201,-8.379c-1.374,-3.221 -2.061,-6.729 -2.061,-10.523c0,-5.007 1.178,-7.894 3.533,-8.659c-2.224,-3.56 -3.336,-7.844 -3.336,-12.852c0,-4.704 1.046,-7.515 3.14,-8.43c-1.963,-3.41 -2.944,-7.467 -2.944,-12.171c0,-5.008 1.145,-7.913 3.434,-8.716Z" style="fill-rule:nonzero;"/><path d="M706.077,2986.95c0,5.767 -0.883,9.127 -2.649,10.08c1.701,2.803 2.551,6.556 2.551,11.261c0,5.311 -0.948,8.481 -2.845,9.511c1.7,2.803 2.551,6.632 2.551,11.488c0,5.463 -0.883,8.671 -2.65,9.624c1.767,2.386 2.65,5.551 2.65,9.497c0,5.615 -1.112,9.222 -3.336,10.821c2.027,2.688 3.041,6.84 3.041,12.455c0,5.008 -0.883,8.14 -2.649,9.396c1.766,2.386 2.649,5.627 2.649,9.725c0,6.07 -1.275,9.734 -3.826,10.993c1.635,2.917 2.453,6.727 2.453,11.432c0,4.401 -0.687,7.418 -2.061,9.053c2.028,2.233 3.042,5.399 3.042,9.496c0,5.311 -0.671,8.87 -2.012,10.675c-1.341,1.806 -2.796,2.255 -4.366,1.349c-1.57,-0.907 -2.83,-2.848 -3.778,-5.823c-0.949,-2.976 -1.423,-6.285 -1.423,-9.927c0,-3.946 0.949,-6.433 2.846,-7.462c-2.486,-3.56 -3.729,-8.147 -3.729,-13.762c0,-5.16 1.21,-8.027 3.631,-8.602c-0.262,-0.455 -0.491,-0.967 -0.687,-1.535c-0.197,-0.569 -0.393,-1.137 -0.589,-1.706c-1.112,2.393 -2.453,3.136 -4.023,2.23c-1.701,-0.982 -3.189,-3.169 -4.465,-6.561c-1.276,-3.393 -1.914,-7.061 -1.914,-11.007c0,-2.428 0.295,-4.762 0.884,-7.002c-3.14,-3.33 -4.71,-8.865 -4.71,-16.605c0,-3.035 0.327,-5.577 0.981,-7.628c-3.337,-3.747 -5.005,-8.807 -5.005,-15.181c0,-2.428 0.327,-4.212 0.982,-5.352c-1.44,-1.741 -2.781,-4.374 -4.024,-7.9c-1.243,-3.525 -1.864,-6.956 -1.864,-10.295c0,-1.973 0.229,-3.586 0.687,-4.839c-1.701,-0.982 -3.238,-3.615 -4.612,-7.898l-0.491,0.627c1.243,2.994 1.865,6.54 1.865,10.637c0,4.704 -0.785,7.742 -2.355,9.111c1.504,3.145 2.257,6.994 2.257,11.547c0,5.463 -0.982,8.766 -2.944,9.909c1.766,2.689 2.649,6.614 2.649,11.773c0,5.16 -0.916,8.349 -2.747,9.568c1.766,2.84 2.649,6.689 2.649,11.545c0,5.311 -0.883,8.443 -2.649,9.397c1.635,2.917 2.453,6.803 2.453,11.659c0,5.311 -0.916,8.425 -2.748,9.34c1.767,3.144 2.65,6.993 2.65,11.545c0,5.16 -0.458,8.727 -1.374,10.702c-0.916,1.976 -2.126,2.529 -3.631,1.66c-1.766,-1.02 -3.303,-3.463 -4.612,-7.329c-1.308,-3.866 -1.962,-7.772 -1.962,-11.718c0,-4.704 1.112,-7.401 3.336,-8.089c-2.093,-3.485 -3.14,-7.656 -3.14,-12.512c0,-4.856 1.079,-7.723 3.238,-8.601c-2.028,-3.447 -3.042,-7.523 -3.042,-12.227c0,-4.856 1.08,-7.723 3.238,-8.602c-2.093,-3.485 -3.14,-7.731 -3.14,-12.739c0,-4.856 1.014,-7.685 3.042,-8.487c-2.028,-3.143 -3.042,-6.991 -3.042,-11.544c0,-5.16 1.014,-8.52 3.042,-10.081c-1.897,-3.675 -2.845,-8.016 -2.845,-13.024c0,-5.463 1.112,-8.463 3.336,-9c-1.374,-3.221 -2.061,-6.804 -2.061,-10.75c0,-4.249 0.851,-6.945 2.552,-8.087c-2.355,-2.878 -3.533,-6.82 -3.533,-11.828c0,-3.794 0.687,-6.66 2.061,-8.598c1.373,-1.939 2.878,-2.436 4.513,-1.492c3.402,1.964 5.103,6.816 5.103,14.555c0,4.857 -0.85,7.856 -2.551,8.998l1.57,2.728c1.308,-0.914 2.584,-1.012 3.827,-0.295c1.504,0.869 2.747,2.763 3.729,5.682c0.981,2.918 1.471,6.199 1.471,9.841c0,2.883 -0.392,5.767 -1.177,8.653c0.131,-0.077 0.556,0.093 1.276,0.508c1.635,0.945 3.058,3.132 4.268,6.562c1.21,3.431 1.815,7.043 1.815,10.836c0,2.58 -0.327,4.895 -0.981,6.946c0.589,0.643 1.243,1.666 1.963,3.068c0.719,1.401 1.39,2.927 2.011,4.575c0.622,1.649 1.129,3.345 1.521,5.09c0.393,1.744 0.589,3.375 0.589,4.892c0,2.125 -0.229,3.586 -0.687,4.384c2.813,4.052 4.22,9.341 4.22,15.866c0,2.276 -0.36,4.497 -1.08,6.661c1.766,2.234 3.075,5.189 3.925,8.867c0.458,-0.798 1.112,-1.33 1.963,-1.598c-2.159,-3.523 -3.238,-7.788 -3.238,-12.796c0,-4.856 1.014,-7.685 3.042,-8.487c-1.963,-3.409 -2.944,-7.466 -2.944,-12.171c0,-5.007 1.145,-7.913 3.434,-8.715c-2.224,-3.561 -3.336,-7.845 -3.336,-12.853c0,-4.856 1.079,-7.723 3.238,-8.601c-2.028,-3.447 -3.042,-7.523 -3.042,-12.227c0,-5.463 1.243,-8.54 3.729,-9.229c-1.112,-1.856 -2.012,-4.045 -2.699,-6.566c-0.686,-2.521 -1.03,-5.147 -1.03,-7.879c0,-3.035 0.573,-5.056 1.717,-6.065c1.145,-1.008 2.47,-1.078 3.975,-0.209c4.055,2.342 6.083,7.23 6.083,14.666Z" style="fill-rule:nonzero;"/><path d="M838.156,3168.37c0,6.678 -1.439,10.247 -4.318,10.71c1.374,2.614 2.061,5.97 2.061,10.067c0,3.794 -0.556,6.964 -1.668,9.508c-1.112,2.545 -2.551,3.307 -4.318,2.288c-0.458,-0.265 -0.916,-0.757 -1.373,-1.476c0.196,1.782 0.294,3.356 0.294,4.722c0,3.946 -0.589,7.134 -1.766,9.565c-1.178,2.431 -2.617,3.156 -4.318,2.174c-1.701,-0.982 -3.14,-3.482 -4.317,-7.501c-1.113,2.393 -2.584,3.061 -4.416,2.003c-1.963,-1.133 -3.533,-3.557 -4.71,-7.272c-1.112,2.393 -2.519,3.099 -4.22,2.117c-1.57,-0.907 -3.025,-2.923 -4.366,-6.049c-1.341,-3.127 -2.012,-6.435 -2.012,-9.926c0,-2.124 0.36,-4.041 1.079,-5.75c-0.13,0.076 -0.588,-0.112 -1.373,-0.565c-0.785,-0.454 -1.57,-1.362 -2.355,-2.726c-0.785,-1.364 -1.489,-2.946 -2.11,-4.746c-0.622,-1.801 -1.112,-3.715 -1.472,-5.744c-0.36,-2.029 -0.54,-3.954 -0.54,-5.775c0,-3.945 0.785,-6.527 2.355,-7.745c-2.813,-3.445 -4.219,-8.127 -4.219,-14.045c0,-3.491 0.605,-5.911 1.815,-7.261c1.21,-1.35 2.666,-1.534 4.367,-0.552c3.532,2.04 5.299,6.474 5.299,13.303c0,4.856 -0.687,8.102 -2.061,9.736c2.682,2.915 4.023,7.71 4.023,14.388c0,3.642 -0.425,6.659 -1.275,9.051c0.588,-0.267 1.504,-0.042 2.747,0.676c1.832,1.057 3.304,3.197 4.416,6.419c1.308,-1.824 2.878,-2.208 4.71,-1.15c1.897,1.095 3.369,3.159 4.416,6.191c1.57,-3.039 3.336,-3.992 5.298,-2.859c0.197,0.113 0.409,0.236 0.638,0.368c0.229,0.132 0.442,0.331 0.638,0.596c-0.458,-2.389 -0.687,-4.949 -0.687,-7.681c0,-6.525 1.57,-9.488 4.71,-8.889c-1.701,-4.169 -2.551,-9.137 -2.551,-14.903c0,-1.518 0.164,-3.32 0.491,-5.408c-0.131,-0.075 -0.278,-0.122 -0.442,-0.141c-0.163,-0.018 -0.311,-0.066 -0.441,-0.141c-0.851,-0.491 -1.718,-1.295 -2.601,-2.412c-0.883,-1.117 -1.701,-2.461 -2.453,-4.034c-0.752,-1.572 -1.357,-3.288 -1.815,-5.145c-0.458,-1.858 -0.687,-3.849 -0.687,-5.974c-0.916,2.051 -1.963,2.737 -3.14,2.057c-0.785,-0.453 -1.603,-1.381 -2.453,-2.782c-0.851,-1.402 -1.652,-3.04 -2.405,-4.916c-0.752,-1.876 -1.406,-3.848 -1.962,-5.914c-0.556,-2.066 -0.965,-4.009 -1.227,-5.83c-0.981,0.8 -2.06,0.859 -3.238,0.18c-1.047,-0.605 -2.044,-1.56 -2.993,-2.867c-0.948,-1.306 -1.799,-2.859 -2.551,-4.659c-0.752,-1.8 -1.341,-3.696 -1.766,-5.686c-0.426,-1.991 -0.638,-3.897 -0.638,-5.718c0,-1.821 0.262,-3.643 0.785,-5.465l-0.589,-0.34c-1.701,-0.982 -3.124,-3.018 -4.268,-6.107c-1.145,-3.089 -1.718,-6.606 -1.718,-10.551c0,-6.981 1.603,-10.077 4.809,-9.289c-1.113,-3.222 -1.669,-6.198 -1.669,-8.93c0,-3.794 0.671,-6.707 2.012,-8.74c1.341,-2.033 2.829,-2.578 4.465,-1.634c0.589,0.34 0.948,0.624 1.079,0.851c-0.916,-3.564 -1.374,-6.408 -1.374,-8.532c0,-3.642 0.72,-6.224 2.159,-7.745c1.439,-1.522 2.944,-1.829 4.514,-0.923c1.766,1.02 3.107,3.388 4.023,7.103c1.243,-1.71 2.846,-1.999 4.808,-0.866c1.767,1.02 3.206,3.141 4.318,6.363c1.243,-2.014 2.715,-2.53 4.416,-1.548c1.504,0.869 2.862,2.639 4.072,5.31c1.21,2.672 1.815,5.753 1.815,9.243c0,2.124 -0.359,4.497 -1.079,7.116c0.327,0.037 0.621,0.093 0.883,0.169c0.262,0.075 0.523,0.188 0.785,0.339c1.636,0.944 3.091,3.15 4.367,6.618c1.275,3.468 1.913,7.099 1.913,10.893c0,8.498 -1.831,11.69 -5.495,9.575c-1.635,-0.944 -3.058,-2.942 -4.268,-5.993c-1.211,-3.051 -1.816,-6.473 -1.816,-10.267c0,-3.945 0.327,-6.716 0.982,-8.311c-0.328,-0.037 -0.638,-0.103 -0.933,-0.197c-0.294,-0.094 -0.605,-0.235 -0.932,-0.424c-1.897,-1.095 -3.5,-3.538 -4.808,-7.329c-1.112,2.393 -2.584,3.061 -4.416,2.003c-1.831,-1.057 -3.369,-3.386 -4.612,-6.987c-1.112,2.393 -2.584,3.061 -4.415,2.003c-0.916,-0.529 -1.472,-0.926 -1.669,-1.191c0.72,2.996 1.08,5.859 1.08,8.59c0,7.892 -1.636,11.348 -4.907,10.37c0.982,2.691 1.472,5.782 1.472,9.272c0,2.58 -0.261,4.781 -0.785,6.604l0.785,0.453c0.916,0.529 1.848,1.408 2.797,2.639c0.949,1.23 1.799,2.67 2.551,4.318c0.753,1.649 1.374,3.449 1.865,5.402c0.49,1.952 0.736,3.915 0.736,5.888l0,1.821c0.327,0.037 0.703,0.14 1.128,0.31c0.425,0.169 0.9,0.405 1.423,0.707c2.159,1.247 3.876,3.338 5.152,6.275c1.275,2.937 1.913,6.227 1.913,9.869c1.112,-2.849 2.617,-3.725 4.514,-2.63c1.832,1.058 3.483,3.301 4.955,6.731c1.472,3.43 2.208,7.269 2.208,11.518c0,2.428 -0.294,4.686 -0.883,6.774c0.327,0.037 0.621,0.093 0.883,0.169c0.262,0.075 0.523,0.188 0.785,0.339c1.701,0.982 3.14,2.989 4.318,6.021c1.177,3.032 1.766,6.521 1.766,10.466Z" style="fill-rule:nonzero;"/><path d="M905.177,3101.9c-0.131,8.423 -1.832,11.69 -5.103,9.801c-1.897,-1.095 -3.533,-3.86 -4.906,-8.295c-0.982,3.075 -2.552,3.99 -4.71,2.743c-1.832,-1.057 -3.402,-3.481 -4.711,-7.272c-1.112,2.393 -2.584,3.061 -4.415,2.004c-1.832,-1.058 -3.369,-3.387 -4.612,-6.988c-1.112,2.393 -2.584,3.061 -4.416,2.003c-2.028,-1.171 -3.663,-3.708 -4.906,-7.613c-0.458,1.102 -1.08,1.729 -1.865,1.883c1.963,2.954 2.944,6.935 2.944,11.943c0,4.856 -0.85,7.931 -2.551,9.225c1.57,3.487 2.355,7.43 2.355,11.831c0,4.704 -0.785,7.742 -2.355,9.111l1.472,4.265c1.243,-1.711 3.009,-1.905 5.299,-0.583c1.439,0.831 2.714,2.402 3.827,4.713c0.915,-1.14 1.995,-1.352 3.238,-0.634c2.028,1.171 3.729,3.746 5.102,7.726c1.178,-2.659 2.911,-3.327 5.201,-2.005c3.663,2.115 5.495,6.663 5.495,13.643c0,3.946 -0.523,6.869 -1.57,8.768c-1.047,1.9 -2.388,2.377 -4.023,1.433c-1.505,-0.868 -2.878,-2.8 -4.121,-5.794c-1.112,1.483 -2.421,1.79 -3.925,0.921c-2.748,-1.586 -4.809,-4.901 -6.182,-9.943c-1.374,3.456 -3.108,4.58 -5.201,3.371c-1.505,-0.868 -2.748,-3.028 -3.729,-6.478c-0.262,0.456 -0.507,0.884 -0.736,1.283c-0.229,0.399 -0.507,0.655 -0.834,0.77c1.766,2.689 2.649,6.614 2.649,11.773c0,5.16 -0.915,8.349 -2.747,9.568c1.766,2.84 2.649,6.689 2.649,11.545c0,5.311 -0.883,8.443 -2.649,9.396c1.635,2.917 2.453,6.804 2.453,11.66c0,5.311 -0.916,8.425 -2.748,9.34l1.669,3.922c1.308,-1.824 2.878,-2.208 4.71,-1.15c1.831,1.058 3.303,3.197 4.415,6.419c1.309,-1.824 2.879,-2.208 4.711,-1.15c1.831,1.057 3.303,3.197 4.415,6.419c1.309,-1.825 2.879,-2.208 4.71,-1.15c1.897,1.095 3.402,3.253 4.514,6.475c1.374,-1.938 3.173,-2.265 5.397,-0.981c3.206,1.851 4.808,5.432 4.808,10.743c0,2.124 -0.196,4.022 -0.588,5.692c-0.393,1.67 -0.9,3.047 -1.521,4.13c-0.622,1.083 -1.325,1.853 -2.11,2.31c-0.785,0.457 -1.57,0.459 -2.355,0.006c-1.57,-0.906 -2.846,-3.084 -3.827,-6.534c-1.047,2.279 -2.519,2.871 -4.416,1.775c-1.962,-1.133 -3.532,-3.557 -4.71,-7.272c-1.112,2.393 -2.584,3.061 -4.416,2.004c-1.962,-1.134 -3.532,-3.558 -4.71,-7.272c-1.112,2.393 -2.584,3.06 -4.415,2.003c-1.701,-0.982 -3.206,-3.141 -4.514,-6.476c-0.851,3.758 -2.192,5.108 -4.023,4.051c-0.785,-0.453 -1.587,-1.371 -2.405,-2.754c-0.817,-1.383 -1.553,-2.984 -2.207,-4.803c-0.655,-1.819 -1.194,-3.8 -1.619,-5.943c-0.426,-2.142 -0.638,-4.124 -0.638,-5.945c0,-4.249 1.177,-6.832 3.532,-7.748c-2.093,-3.485 -3.14,-7.656 -3.14,-12.512c0,-4.856 1.08,-7.723 3.238,-8.601c-2.028,-3.447 -3.042,-7.523 -3.042,-12.227c0,-4.856 1.08,-7.723 3.239,-8.602c-2.094,-3.485 -3.14,-7.731 -3.14,-12.739c0,-4.856 1.014,-7.685 3.042,-8.487c-2.028,-3.143 -3.042,-6.992 -3.042,-11.544c0,-5.16 1.014,-8.52 3.042,-10.081c-1.898,-3.371 -2.846,-7.713 -2.846,-13.024c0,-4.704 0.916,-7.666 2.747,-8.885c-1.635,-3.372 -2.453,-7.183 -2.453,-11.432c0,-4.4 0.981,-7.172 2.944,-8.316c-2.028,-3.143 -3.042,-6.612 -3.042,-10.406c0,-1.973 0.213,-3.747 0.638,-5.322c0.425,-1.576 0.965,-2.858 1.619,-3.846c0.654,-0.988 1.406,-1.654 2.257,-1.997c0.85,-0.344 1.668,-0.289 2.453,0.164c1.439,0.831 2.715,3.085 3.827,6.762c1.243,-2.166 2.911,-2.644 5.004,-1.435c1.832,1.057 3.206,3.368 4.122,6.932c1.243,-1.711 2.813,-2.018 4.71,-0.923c1.832,1.057 3.304,3.197 4.416,6.419c1.308,-1.824 2.911,-2.189 4.808,-1.094c1.57,0.907 2.911,2.592 4.023,5.055c1.047,-1.369 2.519,-1.505 4.416,-0.41c4.056,2.342 6.084,7.23 6.084,14.666Z" style="fill-rule:nonzero;"/><path d="M970.137,3160.57c-0.131,8.423 -1.996,11.596 -5.594,9.518c-1.701,-0.982 -3.123,-2.979 -4.268,-5.992c-1.145,-3.014 -1.717,-6.417 -1.717,-10.211c0,-3.49 0.637,-5.815 1.913,-6.976c1.276,-1.16 2.666,-1.306 4.17,-0.437c3.664,2.115 5.496,6.814 5.496,14.098Zm-6.967,-25.192c-0.066,3.605 -0.622,6.319 -1.669,8.142c-1.046,1.824 -2.387,2.264 -4.023,1.32c-1.766,-1.02 -3.303,-3.425 -4.612,-7.216c-1.112,2.393 -2.584,3.061 -4.416,2.004c-1.831,-1.058 -3.369,-3.387 -4.611,-6.988c-1.113,2.393 -2.584,3.061 -4.416,2.003c-0.327,-0.189 -0.671,-0.425 -1.031,-0.709c-0.359,-0.283 -0.703,-0.595 -1.03,-0.936c0.916,3.564 1.374,7.015 1.374,10.354c0,7.436 -1.57,10.475 -4.71,9.117c0.916,3.109 1.374,6.18 1.374,9.215c0,4.857 -0.785,7.97 -2.355,9.339c1.504,3.145 2.256,6.994 2.256,11.547c0,5.463 -0.981,8.766 -2.943,9.909c1.831,2.575 2.747,6.518 2.747,11.83c0,5.159 -0.948,8.33 -2.845,9.511c1.766,2.84 2.649,6.689 2.649,11.545c0,3.946 -0.621,6.925 -1.864,8.939c3.205,2.306 4.808,7.329 4.808,15.068c0,3.035 -0.36,5.863 -1.08,8.482c0.327,0.037 0.622,0.093 0.884,0.169c0.261,0.075 0.556,0.207 0.883,0.396c1.701,0.982 3.107,3.159 4.219,6.533c1.308,-1.824 2.879,-2.208 4.71,-1.15c1.832,1.057 3.304,3.197 4.416,6.419c1.308,-1.825 2.878,-2.208 4.71,-1.15c3.598,2.077 5.397,6.758 5.397,14.042c0,3.642 -0.54,6.365 -1.619,8.17c-1.08,1.805 -2.404,2.254 -3.974,1.348c-1.767,-1.02 -3.304,-3.425 -4.612,-7.216c-1.112,2.393 -2.584,3.061 -4.416,2.004c-1.962,-1.134 -3.532,-3.558 -4.71,-7.272c-1.112,2.393 -2.519,3.098 -4.219,2.116c-1.57,-0.906 -3.042,-2.932 -4.416,-6.078c-1.374,-3.145 -2.061,-6.463 -2.061,-9.953c0,-1.973 0.36,-3.814 1.08,-5.523c-0.916,-0.529 -1.767,-1.475 -2.552,-2.839c-0.785,-1.363 -1.504,-2.955 -2.159,-4.774c-0.654,-1.82 -1.161,-3.744 -1.52,-5.772c-0.36,-2.029 -0.54,-3.954 -0.54,-5.775c0,-3.794 0.719,-6.262 2.159,-7.404c-3.337,-3.443 -5.005,-8.504 -5.005,-15.181c0,-4.704 1.08,-7.495 3.238,-8.374c-2.093,-3.485 -3.14,-7.731 -3.14,-12.739c0,-4.856 1.014,-7.685 3.042,-8.487c-2.028,-3.143 -3.042,-6.991 -3.042,-11.544c0,-5.16 1.014,-8.52 3.042,-10.081c-1.831,-3.485 -2.747,-7.732 -2.747,-12.74c0,-7.284 1.602,-10.532 4.808,-9.743c-1.112,-2.919 -1.668,-5.971 -1.668,-9.158c0,-3.794 0.654,-6.679 1.962,-8.655c1.309,-1.976 2.781,-2.492 4.416,-1.548c0.196,0.113 0.392,0.265 0.589,0.454c0.196,0.189 0.425,0.435 0.687,0.738c-0.982,-2.995 -1.472,-5.858 -1.472,-8.589c0,-3.642 0.719,-6.224 2.158,-7.745c1.44,-1.522 2.944,-1.829 4.514,-0.922c1.767,1.019 3.108,3.387 4.024,7.103c1.242,-1.711 2.845,-2 4.808,-0.866c1.766,1.019 3.205,3.14 4.317,6.362c1.309,-1.824 2.911,-2.189 4.809,-1.094c3.598,2.078 5.397,6.758 5.397,14.042Zm6.083,130.758c0,8.498 -1.799,11.708 -5.397,9.631c-1.7,-0.982 -3.14,-2.951 -4.317,-5.907c-1.178,-2.956 -1.766,-6.256 -1.766,-9.898c0,-3.642 0.605,-6.1 1.815,-7.374c1.21,-1.274 2.666,-1.42 4.367,-0.438c1.897,1.095 3.254,2.79 4.072,5.083c0.817,2.293 1.226,5.26 1.226,8.903Z" style="fill-rule:nonzero;"/><path d="M1037.55,3178.32c0,5.766 -0.884,9.126 -2.65,10.079c1.636,2.765 2.453,6.5 2.453,11.205c0,5.463 -0.916,8.652 -2.747,9.567c1.701,2.803 2.551,6.633 2.551,11.489c0,5.463 -0.916,8.652 -2.747,9.567c1.831,2.424 2.747,5.608 2.747,9.554c0,5.614 -1.112,9.221 -3.336,10.821c2.028,2.688 3.042,6.84 3.042,12.454c0,5.008 -0.883,8.14 -2.65,9.397c1.767,2.386 2.65,5.551 2.65,9.497c0,2.883 -0.442,5.435 -1.325,7.657c-0.883,2.222 -1.913,3.524 -3.091,3.906c1.308,2.88 1.963,6.293 1.963,10.238c0,3.794 -0.557,6.964 -1.669,9.508c-1.112,2.545 -2.518,3.326 -4.219,2.344c-0.785,-0.453 -1.407,-1.115 -1.864,-1.987c0.457,2.238 0.686,4.57 0.686,6.998c0,3.794 -0.556,6.66 -1.668,8.598c-1.112,1.937 -2.518,2.415 -4.219,1.433c-1.701,-0.982 -3.173,-3.501 -4.416,-7.557c-1.112,2.393 -2.617,3.042 -4.514,1.946c-1.962,-1.133 -3.5,-3.538 -4.612,-7.215c-1.112,2.393 -2.518,3.099 -4.219,2.117c-1.701,-0.982 -3.189,-3.056 -4.465,-6.22c-1.276,-3.165 -1.913,-6.568 -1.913,-10.21c0,-1.669 0.196,-3.301 0.588,-4.896l-0.588,-0.34c-0.851,-0.491 -1.685,-1.427 -2.503,-2.81c-0.817,-1.383 -1.553,-2.984 -2.207,-4.803c-0.655,-1.819 -1.178,-3.791 -1.57,-5.914c-0.393,-2.124 -0.589,-4.172 -0.589,-6.145c0,-3.945 0.785,-6.527 2.355,-7.745c-2.748,-3.407 -4.122,-8.146 -4.122,-14.216c0,-4.705 1.08,-7.496 3.239,-8.374c-2.094,-3.485 -3.14,-7.731 -3.14,-12.739c0,-4.856 1.014,-7.685 3.042,-8.487c-2.028,-3.144 -3.042,-6.992 -3.042,-11.544c0,-5.16 1.014,-8.52 3.042,-10.081c-1.898,-3.675 -2.846,-8.016 -2.846,-13.024c0,-4.705 0.916,-7.666 2.747,-8.885c-1.7,-3.562 -2.551,-7.391 -2.551,-11.489c0,-4.4 0.981,-7.172 2.944,-8.316c-1.963,-3.106 -2.944,-6.783 -2.944,-11.032c0,-3.794 0.703,-6.651 2.11,-8.57c1.406,-1.92 2.927,-2.407 4.563,-1.463c3.401,1.964 5.102,6.816 5.102,14.555c0,5.008 -1.014,8.14 -3.042,9.398c1.963,2.954 2.944,6.935 2.944,11.943c0,4.856 -0.883,7.912 -2.649,9.168c1.57,3.487 2.355,7.43 2.355,11.831c0,4.704 -0.785,7.741 -2.355,9.111c1.504,3.145 2.257,6.994 2.257,11.547c0,5.463 -0.982,8.766 -2.944,9.909c1.832,2.575 2.747,6.518 2.747,11.83c0,5.159 -0.948,8.33 -2.845,9.511c1.831,2.878 2.747,6.745 2.747,11.602c0,4.4 -0.719,7.399 -2.158,8.996c2.682,2.915 4.023,7.559 4.023,13.932c0,2.277 -0.262,4.933 -0.785,7.969c0.654,-0.077 1.243,0.035 1.766,0.337c2.159,1.247 3.827,3.955 5.004,8.125c1.243,-1.71 2.813,-2.018 4.711,-0.923c1.7,0.982 3.107,2.933 4.219,5.851c1.505,-3.077 3.271,-4.03 5.299,-2.859c0.131,0.075 0.327,0.227 0.589,0.454c0.261,0.227 0.556,0.51 0.883,0.851c-0.524,-3.489 -0.785,-6.068 -0.785,-7.737c0,-6.071 1.472,-9.09 4.415,-9.06c-1.504,-3.449 -2.257,-7.07 -2.257,-10.864c0,-5.007 1.178,-7.894 3.533,-8.659c-2.224,-3.56 -3.336,-7.844 -3.336,-12.852c0,-4.856 1.014,-7.685 3.042,-8.487c-1.963,-3.409 -2.944,-7.466 -2.944,-12.171c0,-5.007 1.177,-7.894 3.532,-8.659c-2.224,-3.56 -3.336,-7.844 -3.336,-12.852c0,-4.856 1.08,-7.723 3.238,-8.601c-2.028,-3.448 -3.042,-7.523 -3.042,-12.228c0,-5.463 1.243,-8.539 3.729,-9.228c-1.112,-1.856 -2.011,-4.083 -2.698,-6.68c-0.687,-2.597 -1.031,-5.337 -1.031,-8.22c0,-3.035 0.573,-4.981 1.718,-5.838c1.144,-0.856 2.436,-0.869 3.876,-0.038c4.121,2.379 6.182,7.287 6.182,14.723Z" style="fill-rule:nonzero;"/><path d="M1103.98,3259.24c0,7.284 -1.537,10.645 -4.612,10.084c0.851,2.009 1.276,4.379 1.276,7.11c0,1.821 -0.18,3.652 -0.54,5.493c-0.359,1.841 -0.85,3.379 -1.471,4.614c-0.622,1.234 -1.342,2.147 -2.159,2.737c-0.818,0.59 -1.652,0.64 -2.503,0.149c-0.654,-0.378 -1.21,-0.927 -1.668,-1.646c0.72,2.54 1.08,5.099 1.08,7.679c0,4.705 -0.72,7.779 -2.159,9.225c2.747,2.041 4.121,5.414 4.121,10.119c0,3.945 -0.85,7.855 -2.551,11.729c0.131,0.076 0.294,0.132 0.491,0.17c0.196,0.037 0.359,0.094 0.49,0.169c1.505,0.869 2.78,2.705 3.827,5.51c1.047,2.805 1.57,5.952 1.57,9.443c0,2.883 -0.36,5.407 -1.079,7.571c3.402,2.116 5.102,6.209 5.102,12.279c0,5.16 -0.67,8.68 -2.011,10.561c-1.341,1.882 -2.797,2.369 -4.367,1.463c-3.532,-2.04 -5.299,-7.309 -5.299,-15.807c0,-3.035 0.426,-5.293 1.276,-6.775c-1.439,-1.438 -2.682,-3.749 -3.729,-6.933c-1.047,-3.184 -1.57,-6.37 -1.57,-9.556c0,-2.125 0.36,-4.042 1.08,-5.751c-1.44,-0.982 -2.601,-3.132 -3.484,-6.45c-0.883,-3.317 -1.325,-6.721 -1.325,-10.211c0,-4.704 0.883,-7.457 2.65,-8.259c-0.524,-0.605 -1.014,-1.306 -1.472,-2.101c-0.458,-0.796 -0.851,-1.592 -1.178,-2.387c-0.916,1.595 -2.028,2.016 -3.336,1.26c-2.028,-1.171 -3.729,-3.974 -5.103,-8.409c-1.112,3 -2.682,3.915 -4.71,2.744c-2.028,-1.171 -3.63,-3.69 -4.808,-7.556c-0.523,1.367 -1.079,2.184 -1.668,2.451c1.766,2.841 2.649,6.689 2.649,11.545c0,5.312 -0.883,8.444 -2.649,9.397c1.635,2.917 2.453,6.803 2.453,11.659c0,5.312 -0.916,8.425 -2.747,9.34c1.766,3.145 2.649,6.993 2.649,11.546c0,5.159 -0.442,8.736 -1.325,10.73c-0.883,1.994 -2.109,2.538 -3.679,1.631c-1.767,-1.019 -3.288,-3.453 -4.563,-7.3c-1.276,-3.848 -1.914,-7.744 -1.914,-11.69c0,-4.552 1.08,-7.268 3.238,-8.146c-2.093,-3.485 -3.14,-7.655 -3.14,-12.511c0,-4.856 1.08,-7.724 3.238,-8.602c-2.027,-3.447 -3.041,-7.523 -3.041,-12.227c0,-4.856 1.079,-7.723 3.238,-8.601c-2.094,-3.485 -3.14,-7.732 -3.14,-12.739c0,-4.856 1.014,-7.685 3.042,-8.487c-2.028,-3.144 -3.042,-6.992 -3.042,-11.545c0,-5.159 1.014,-8.519 3.042,-10.08c-1.898,-3.675 -2.846,-8.017 -2.846,-13.025c0,-4.704 0.916,-7.665 2.747,-8.884c-1.635,-3.373 -2.453,-7.183 -2.453,-11.432c0,-4.401 0.982,-7.173 2.944,-8.316c-2.028,-3.144 -3.042,-6.613 -3.042,-10.406c0,-1.973 0.213,-3.747 0.638,-5.323c0.425,-1.575 0.965,-2.857 1.619,-3.845c0.654,-0.988 1.407,-1.654 2.257,-1.998c0.85,-0.344 1.668,-0.289 2.453,0.164c1.439,0.831 2.715,3.085 3.827,6.762c1.243,-2.165 2.911,-2.644 5.005,-1.435c1.831,1.057 3.205,3.368 4.121,6.932c1.243,-1.711 2.813,-2.018 4.71,-0.923c1.832,1.058 3.304,3.197 4.416,6.419c1.243,-2.014 2.747,-2.511 4.514,-1.491c1.504,0.869 2.845,2.629 4.023,5.282c1.177,2.653 1.766,5.724 1.766,9.214c0,2.428 -0.327,4.668 -0.981,6.718l0.49,0.283c1.701,0.982 3.206,3.293 4.514,6.931c1.309,3.639 1.963,7.507 1.963,11.604c0,3.794 -0.687,6.508 -2.061,8.143c3.271,2.344 4.906,7.006 4.906,13.987Zm-9.322,4.861c-1.635,-3.372 -2.453,-7.107 -2.453,-11.204c0,-4.098 0.72,-6.717 2.159,-7.859c-3.402,-3.33 -5.103,-8.789 -5.103,-16.376c0,-2.58 0.295,-4.99 0.884,-7.23c-0.066,0.114 -0.393,0.001 -0.982,-0.339c-1.701,-0.982 -3.172,-3.425 -4.415,-7.329c-1.113,2.393 -2.584,3.06 -4.416,2.003c-1.832,-1.058 -3.369,-3.387 -4.612,-6.988c-1.112,2.393 -2.584,3.061 -4.416,2.003c-2.028,-1.17 -3.663,-3.708 -4.906,-7.612c-0.458,1.101 -1.08,1.729 -1.865,1.882c1.963,2.954 2.944,6.935 2.944,11.943c0,4.856 -0.85,7.932 -2.551,9.226c1.57,3.486 2.355,7.43 2.355,11.83c0,4.705 -0.785,7.742 -2.355,9.112c1.505,3.145 2.257,6.993 2.257,11.546c0,5.463 -0.981,8.766 -2.944,9.909c0.654,0.985 1.21,2.293 1.668,3.923c1.243,-2.014 2.813,-2.473 4.71,-1.378c1.897,1.095 3.337,3.14 4.318,6.135c1.243,-1.559 2.813,-1.791 4.71,-0.695c1.57,0.906 2.911,2.591 4.023,5.054c1.309,-1.369 2.715,-1.619 4.22,-0.751c0.981,0.567 1.929,1.57 2.845,3.009c-1.112,-3.222 -1.668,-7.337 -1.668,-12.345c0,-3.186 0.442,-5.435 1.325,-6.747c0.883,-1.311 2.306,-1.552 4.268,-0.722Z" style="fill-rule:nonzero;"/><path d="M1161.29,3249.76c-0.065,3.604 -0.637,6.309 -1.717,8.114c-1.079,1.804 -2.404,2.254 -3.974,1.347c-1.766,-1.02 -3.304,-3.425 -4.612,-7.215c-0.458,1.101 -1.014,1.767 -1.668,1.996c1.766,3.144 2.649,7.069 2.649,11.773c0,5.463 -0.915,8.652 -2.747,9.567c1.766,2.841 2.649,6.614 2.649,11.318c0,6.374 -1.21,9.772 -3.63,10.196c2.485,4.47 3.728,9.513 3.728,15.128c0,4.249 -1.014,6.319 -3.042,6.21c1.701,2.803 2.552,6.633 2.552,11.489c0,5.16 -0.883,8.216 -2.65,9.169c1.636,2.917 2.454,6.728 2.454,11.432c0,4.856 -0.818,7.95 -2.454,9.282c1.57,2.576 2.355,5.837 2.355,9.782c0,6.222 -1.144,9.734 -3.434,10.537c0.785,1.06 1.537,2.633 2.257,4.717c1.308,-1.824 2.878,-2.208 4.71,-1.15c3.598,2.077 5.397,6.758 5.397,14.042c0,3.642 -0.54,6.366 -1.619,8.171c-1.08,1.804 -2.404,2.254 -3.974,1.347c-1.767,-1.02 -3.304,-3.425 -4.612,-7.215c-1.112,2.393 -2.584,3.061 -4.416,2.003c-1.897,-1.095 -3.5,-3.538 -4.808,-7.329c-1.112,2.393 -2.519,3.099 -4.22,2.117c-1.7,-0.982 -3.14,-2.989 -4.317,-6.021c-1.178,-3.032 -1.766,-6.445 -1.766,-10.239c0,-3.338 0.588,-5.654 1.766,-6.947c1.177,-1.293 2.617,-1.449 4.317,-0.467c1.832,1.058 3.304,3.198 4.416,6.42c0.72,-1.254 1.537,-1.92 2.453,-1.999c-2.486,-3.559 -3.729,-7.767 -3.729,-12.623c0,-4.705 1.113,-7.401 3.337,-8.09c-2.094,-3.485 -3.14,-7.655 -3.14,-12.511c0,-5.615 1.243,-8.615 3.729,-9.001c-2.421,-4.281 -3.631,-8.925 -3.631,-13.933c0,-4.704 1.341,-6.965 4.023,-6.782c-2.617,-3.484 -3.925,-8.185 -3.925,-14.103c0,-4.553 1.047,-7.06 3.14,-7.52c-1.963,-3.41 -2.944,-7.466 -2.944,-12.171c0,-4.856 1.08,-7.723 3.238,-8.601c-2.028,-3.447 -3.042,-7.675 -3.042,-12.683c0,-4.856 1.08,-7.723 3.239,-8.601c-0.589,-0.947 -1.145,-2.178 -1.669,-3.695c-1.112,2.393 -2.551,3.08 -4.317,2.06c-1.701,-0.982 -3.173,-3.046 -4.416,-6.191c-1.243,-3.146 -1.864,-6.616 -1.864,-10.409c0,-3.491 0.67,-5.987 2.011,-7.489c1.341,-1.502 2.797,-1.8 4.367,-0.893c1.897,1.095 3.304,3.5 4.219,7.216c1.243,-1.71 2.813,-2.018 4.711,-0.923c1.831,1.058 3.303,3.198 4.415,6.419c1.309,-1.824 2.879,-2.207 4.71,-1.15c3.664,2.115 5.495,6.815 5.495,14.099Z" style="fill-rule:nonzero;"/><path d="M1236.26,3293.05c-0.131,8.423 -1.831,11.69 -5.102,9.801c-1.832,-1.057 -3.467,-3.822 -4.907,-8.295c-0.981,3.075 -2.518,4.009 -4.612,2.8c-1.897,-1.095 -3.499,-3.538 -4.808,-7.329c-0.261,1.063 -0.818,1.729 -1.668,1.996c1.832,3.031 2.748,6.974 2.748,11.83c0,5.311 -0.949,8.482 -2.846,9.511c1.832,2.879 2.747,6.67 2.747,11.374c0,6.374 -1.21,9.773 -3.63,10.196c2.486,4.47 3.729,9.513 3.729,15.128c0,4.249 -1.014,6.319 -3.042,6.211c1.635,2.765 2.453,6.575 2.453,11.432c0,5.007 -0.851,8.083 -2.551,9.225c1.635,2.917 2.453,6.728 2.453,11.432c0,4.856 -0.818,7.95 -2.453,9.282c1.57,2.576 2.355,5.837 2.355,9.782c0,6.374 -1.178,9.867 -3.533,10.48c2.159,2.916 3.238,7.03 3.238,12.341c0,8.498 -1.831,11.69 -5.495,9.574c-1.701,-0.982 -3.124,-2.979 -4.268,-5.992c-1.145,-3.013 -1.718,-6.417 -1.718,-10.211c0,-2.579 0.344,-4.544 1.031,-5.892c0.687,-1.349 1.619,-2.138 2.796,-2.369c-2.486,-3.56 -3.729,-7.768 -3.729,-12.624c0,-4.552 1.145,-7.23 3.435,-8.033c-2.093,-3.485 -3.14,-7.655 -3.14,-12.511c0,-5.615 1.243,-8.615 3.729,-9.001c-2.421,-4.281 -3.631,-8.925 -3.631,-13.933c0,-4.704 1.308,-6.984 3.925,-6.839c-2.617,-3.484 -3.925,-8.184 -3.925,-14.103c0,-4.552 1.047,-7.059 3.14,-7.52c-1.962,-3.409 -2.944,-7.466 -2.944,-12.17c0,-4.856 1.08,-7.723 3.238,-8.602c-2.028,-3.447 -3.041,-7.674 -3.041,-12.682c0,-5.008 1.112,-7.856 3.336,-8.545c-0.72,-1.022 -1.309,-2.273 -1.766,-3.751c-1.113,2.393 -2.552,3.08 -4.318,2.06c-2.093,-1.209 -3.762,-3.765 -5.005,-7.67c-1.112,2.393 -2.714,2.985 -4.808,1.777c-1.57,-0.907 -2.911,-2.667 -4.023,-5.282c-1.112,-2.615 -1.668,-5.364 -1.668,-8.247c0,-3.946 0.703,-6.916 2.11,-8.912c1.406,-1.995 2.96,-2.502 4.661,-1.52c1.635,0.944 2.943,3.141 3.925,6.591c1.243,-2.166 2.911,-2.644 5.004,-1.436c1.832,1.058 3.206,3.369 4.122,6.933c1.242,-1.711 2.845,-2 4.808,-0.867c1.831,1.058 3.303,3.198 4.415,6.42c1.309,-1.825 2.879,-2.208 4.711,-1.151c1.57,0.907 2.911,2.591 4.023,5.055c1.046,-1.369 2.518,-1.505 4.415,-0.41c4.056,2.342 6.084,7.23 6.084,14.666Z" style="fill-rule:nonzero;"/><path d="M1302.59,3331.35c0,8.498 -1.635,11.803 -4.906,9.914c-0.72,-0.415 -1.112,-0.717 -1.178,-0.907c1.374,2.918 2.061,6.122 2.061,9.612c0,3.49 -0.507,6.422 -1.521,8.796c-1.014,2.374 -2.241,3.525 -3.68,3.453c0.654,1.895 0.981,4.208 0.981,6.94c0,3.49 -0.605,6.138 -1.815,7.943c-1.21,1.805 -2.6,2.254 -4.17,1.348l-0.982,-0.567c1.047,2.578 1.57,5.611 1.57,9.102c0,3.945 -0.539,6.82 -1.619,8.625c-1.079,1.805 -2.404,2.254 -3.974,1.348c-0.131,-0.076 -0.262,-0.189 -0.392,-0.341c-0.131,-0.151 -0.262,-0.264 -0.393,-0.34c0.72,2.995 1.08,6.086 1.08,9.273c0,5.16 -0.916,8.349 -2.748,9.568c1.766,3.144 2.649,6.992 2.649,11.545c0,4.856 -0.817,7.95 -2.453,9.282c1.57,2.576 2.355,5.837 2.355,9.782c0,6.374 -1.177,9.867 -3.532,10.48c2.159,2.916 3.238,7.029 3.238,12.341c0,8.498 -1.832,11.689 -5.495,9.574c-1.701,-0.982 -3.124,-2.979 -4.269,-5.992c-1.145,-3.014 -1.717,-6.417 -1.717,-10.211c0,-2.58 0.344,-4.544 1.03,-5.892c0.687,-1.349 1.619,-2.139 2.797,-2.369c-2.486,-3.105 -3.729,-7.313 -3.729,-12.624c0,-4.553 1.145,-7.23 3.435,-8.033c-2.094,-3.485 -3.14,-7.731 -3.14,-12.739c0,-4.856 1.079,-7.723 3.238,-8.601c-2.094,-3.789 -3.14,-8.718 -3.14,-14.788c0,-1.973 0.098,-4.192 0.294,-6.659c-1.505,-0.869 -2.78,-3.161 -3.827,-6.876c-1.047,-3.715 -1.57,-7.394 -1.57,-11.036c0,-2.428 0.262,-4.325 0.785,-5.693c-1.57,-1.21 -2.895,-3.378 -3.974,-6.505c-1.079,-3.127 -1.619,-6.436 -1.619,-9.926c0,-2.428 0.327,-4.668 0.981,-6.718c-1.504,-1.02 -2.878,-3.217 -4.121,-6.59c-1.243,-3.374 -1.865,-6.806 -1.865,-10.296c0,-3.794 0.72,-6.262 2.159,-7.403c-3.402,-2.571 -5.102,-6.968 -5.102,-13.19c0,-1.972 0.196,-3.718 0.588,-5.237c0.393,-1.518 0.9,-2.705 1.521,-3.56c0.622,-0.856 1.341,-1.426 2.159,-1.713c0.818,-0.287 1.619,-0.203 2.404,0.25c3.402,1.964 5.103,6.815 5.103,14.555c-0.196,4.439 -0.916,7.438 -2.159,8.997c3.467,2.305 5.201,7.1 5.201,14.384c0,3.035 -0.425,5.521 -1.276,7.458c1.636,0.944 3.058,2.942 4.269,5.993c1.21,3.051 1.815,6.473 1.815,10.267c0,3.035 -0.327,5.35 -0.981,6.945c2.616,1.814 4.481,5.167 5.593,10.058c1.308,-2.28 2.846,-2.91 4.612,-1.89c0.327,0.189 0.621,0.397 0.883,0.624c0.262,0.227 0.589,0.53 0.981,0.908c-1.635,-3.372 -2.453,-6.955 -2.453,-10.749c0,-3.339 0.556,-5.825 1.668,-7.459c1.112,-1.635 2.421,-2.093 3.925,-1.376c-0.981,-3.298 -1.472,-6.617 -1.472,-9.955c0,-3.642 0.606,-6.214 1.816,-7.716c1.21,-1.502 2.633,-1.78 4.268,-0.836c0.851,0.491 1.309,0.831 1.374,1.021c-2.159,-4.13 -3.238,-8.926 -3.238,-14.389c0,-3.036 0.572,-4.981 1.717,-5.838c1.145,-0.856 2.437,-0.869 3.876,-0.038c4.056,2.341 6.084,7.23 6.084,14.666Zm-24.826,54.866l0,-0.683l-0.098,0.171l0.098,0.512Z" style="fill-rule:nonzero;"/></g></g></svg>